<?xml version="1.0" standalone="no"?>
<!DOCTYPE svg PUBLIC "-//W3C//DTD SVG 1.1//EN" "http://www.w3.org/Graphics/SVG/1.1/DTD/svg11.dtd" >
<svg xmlns="http://www.w3.org/2000/svg">
<metadata></metadata>
<defs>
<font id="where_stars_shine_the_brighRg" horiz-adv-x="804" >
<font-face units-per-em="2048" ascent="1536" descent="-512" />
<missing-glyph horiz-adv-x="235" />
<glyph horiz-adv-x="2048" />
<glyph horiz-adv-x="2048" />
<glyph unicode="&#xd;" horiz-adv-x="2048" />
<glyph unicode=" "  horiz-adv-x="235" />
<glyph unicode="&#x09;" horiz-adv-x="235" />
<glyph unicode="&#xa0;" horiz-adv-x="235" />
<glyph unicode="!" horiz-adv-x="153" d="M8 961q4 27 26.5 35t26.5 -25q2 -121 6.5 -215t9.5 -181.5t9 -181.5t6 -215q-6 -20 -25.5 -29.5t-27.5 19.5q-2 121 -6 215t-9.5 182t-9.5 181.5t-6 214.5zM35 27.5q-2 9.5 0 21.5t10 23l4 4q2 0 2 1t2 1q23 23 44.5 13.5t8.5 -44.5q-4 -14 -10 -21.5t-16 -13.5 q-8 0 -12 -4q-14 -2 -22.5 4t-10.5 15.5z" />
<glyph unicode="&#x22;" horiz-adv-x="311" d="M41 885q6 14 17.5 24.5t23.5 13.5t21.5 -2.5t11.5 -21.5l-9 -207q-6 -20 -25.5 -29.5t-27.5 19.5zM174 891q6 14 17.5 24.5t23.5 13.5t21.5 -2t11.5 -22l-8 -207q-6 -20 -25.5 -29.5t-28.5 19.5z" />
<glyph unicode="#" horiz-adv-x="518" d="M3 527.5q3 9.5 10 17.5t16 12q39 0 82 6q-2 18 -3.5 35.5t-1.5 34.5q4 27 27 35t27 -25q0 -16 1 -34.5t3 -35.5l147 27v39q4 27 26.5 35t27.5 -25v-41q31 4 60.5 7t59.5 3h4q10 -2 17 -8q0 -2 2 -4l2 -4v-14q-4 -10 -11 -17.5t-18 -9.5h-10q-23 -2 -48.5 -4t-53.5 -6 l6 -107q14 2 27.5 2h27.5q10 6 21.5 2t13.5 -22q0 -16 -15.5 -27.5t-31.5 -9.5l-43 -6v-55.5t-4 -55.5q-6 -20 -25.5 -29.5t-28.5 19.5q4 29 4.5 57.5t0.5 57.5q-57 -8 -121 -25q8 -47 24 -92q8 -12 -1 -28.5t-25 -18.5q-12 2 -21 12q-10 29 -18 57.5t-15 57.5 q-20 -4 -38.5 -10.5t-36.5 -12.5q-16 -2 -22.5 5.5t-5.5 17.5t8 20.5t18 14.5l65 20q-12 55 -18 113q-23 -4 -46.5 -6t-45.5 -2q-14 2 -18.5 10t-1.5 17.5zM170 516q4 -29 8 -54.5t8 -51.5q35 10 68 17t68 11l-7 103zM211 270l2 -2v2h-2z" />
<glyph unicode="$" horiz-adv-x="493" d="M12 530q-12 20 4 43q4 4 16.5 22.5t24.5 25.5q23 14 68 28.5t98 24.5v141q4 27 26.5 35t26.5 -25v-143q63 6 115.5 -6t71.5 -58q4 -10 0 -22t-12.5 -19.5t-17.5 -6.5t-17 14q-12 29 -51 37t-89 4q0 -45 1.5 -89t3.5 -90q41 -12 78.5 -25t66.5 -32q6 -4 7 -9t3 -13 q-6 -57 -47 -90t-94 -44q4 -35 8 -70.5t10 -70.5q4 -14 0 -24v-2q-10 -16 -27.5 -19.5t-23.5 19.5q-8 41 -13 82.5t-9 82.5q-39 4 -74 18.5t-57 41.5q-10 20 2 38.5t34 8.5q14 -16 38 -26.5t50 -16.5l-6 113q-61 18 -118.5 41.5t-96.5 80.5zM66 557q25 -35 67.5 -56.5 t91.5 -37.5q-2 39 -2 77v76q-55 -10 -100 -27.5t-57 -31.5zM283 389q4 -41 7 -73.5t1 -24.5q35 0 60.5 13t29.5 42q-47 27 -98 43z" />
<glyph unicode="%" horiz-adv-x="714" d="M3.5 689q0.5 46 16 92t42 81t57.5 35q16 4 42.5 2t54.5 -8t52.5 -16.5t36.5 -24.5q45 -59 38 -117.5t-45 -99.5t-97.5 -56.5t-118.5 13.5q-16 8 -31.5 14t-27.5 19q-20 20 -19.5 66zM53 695.5q0 -17.5 10 -25.5q35 -31 72 -37t67.5 3t52 31.5t28 50t-8 55t-53.5 50.5 q-47 27 -84 8.5t-59 -49.5q-4 -4 -9.5 -19t-10.5 -32.5t-5 -35zM84 31q51 111 104.5 232.5t105.5 244.5t104.5 243.5t103.5 229.5q16 23 39.5 19.5t13.5 -31.5q-51 -111 -103.5 -232t-104.5 -244.5t-104.5 -244.5t-103.5 -232q-16 -16 -37.5 -14t-17.5 29zM341 299.5 q1 46.5 16.5 92.5t42 81t57.5 35q16 4 42.5 2t54.5 -8t52.5 -16.5t36.5 -24.5q45 -59 38 -117.5t-45 -99.5t-97.5 -56.5t-118.5 13.5q-16 8 -31.5 14t-28.5 18q-20 20 -19 66.5zM391 306.5q0 -17.5 10 -25.5q35 -31 72 -37t67.5 3t52 31.5t28 50t-8 55t-53.5 50.5 q-47 27 -84 8.5t-59 -49.5q-4 -4 -9.5 -19.5t-10.5 -32.5t-5 -34.5z" />
<glyph unicode="&#x26;" horiz-adv-x="724" d="M3.5 110q14.5 42 47.5 81.5t75 75.5t77 63q-10 12 -20.5 23.5t-20.5 23.5q-47 57 -76 133q-27 66 0 114t79 74.5t115.5 30.5t113.5 -17.5t71.5 -70.5t-10.5 -129q-25 -59 -72 -100t-100 -78q35 -35 73.5 -70t81.5 -65q31 18 59.5 36.5t51 34t39 23.5t24.5 4 q20 -10 20.5 -29.5t-7.5 -15.5q-8 -2 -24.5 -10.5t-37 -19.5t-43 -24.5t-43.5 -25.5q53 -35 106.5 -59.5t106.5 -34.5q14 -6 16.5 -15.5t-2 -19.5t-14.5 -16.5t-22 -6.5q-68 12 -127.5 47t-116.5 74q-49 -27 -108.5 -57.5t-117 -51t-107.5 -25.5t-79 22q-23 39 -8.5 81z M63.5 71.5q26.5 -16.5 110.5 8t207 90.5q-41 31 -78 62.5t-72 66.5q-119 -98 -156.5 -154.5t-11 -73zM139 608q-16 -53 8.5 -100t55.5 -84q10 -14 22.5 -28.5t26.5 -28.5q23 18 62.5 50t69.5 70.5t38 78.5t-31 75q-23 16 -60.5 25.5t-76.5 7.5t-71.5 -17.5t-43.5 -48.5z" />
<glyph unicode="'" horiz-adv-x="194" d="M41 885q6 14 17.5 24.5t23.5 13.5t21.5 -2.5t11.5 -21.5l-9 -207q-6 -20 -25.5 -29.5t-27.5 19.5z" />
<glyph unicode="(" horiz-adv-x="360" d="M10.5 495.5q20.5 147.5 100.5 292t184 265.5q23 16 36 1.5t-1 -36.5q-68 -74 -125.5 -161t-93 -180t-47 -187.5t11 -181.5t83 -162.5t169.5 -131.5q-2 -29 -33 -43q-8 -2 -7 -2t-9 2q-172 104 -230.5 240.5t-38 284z" />
<glyph unicode=")" horiz-adv-x="366" d="M15 1055q13 14 36 -2q104 -121 184 -265.5t100.5 -292t-37.5 -283.5t-230 -241q-10 -2 -9.5 -2t-7.5 2q-31 14 -33 43q109 55 169.5 131t83 163t11 181.5t-47 187.5t-93 180t-125.5 161q-14 23 -1 37z" />
<glyph unicode="*" horiz-adv-x="387" d="M14 438.5q2 12.5 10.5 19.5t17.5 9t19 -10q18 -33 72 -80q-2 29 -1 56.5t1 55.5q4 27 26.5 35t26.5 -24q0 -14 2 -49t7 -78l90 110q20 27 38.5 14.5t2.5 -40.5q-10 -10 -38 -47t-63 -80q27 2 50.5 2h41.5q4 0 8.5 1t8.5 1q14 0 20 -7.5t4 -16.5t-8 -18t-14 -16 q-18 -4 -40 -6t-46 -2q10 -10 19.5 -18t17.5 -19q10 -2 13 -9t2 -16t-7 -17.5t-14 -12.5h-5q-14 -2 -22 4l-55 51q-2 -29 -4 -48t-7 -25q-16 -16 -30.5 -12t-14.5 20q-4 0 -1 12t1 21q0 8 -1 16t-1 16q-29 -31 -49 -51t-29 -24q-18 -4 -26 12q0 2 -2 4q-4 14 5 28.5t21 16.5 l43 51q-18 0 -35.5 1t-33.5 1q-14 2 -18.5 11.5t-1.5 19.5t12.5 18.5t21.5 8.5h39q-20 20 -38 41.5t-32 46.5q-6 10 -4 22.5z" />
<glyph unicode="+" horiz-adv-x="403" d="M15 389q3 10 12.5 18.5t21.5 8.5h123q-4 31 -5 61.5t-3 61.5q4 27 26.5 35t26.5 -25q2 -35 4 -66.5t6 -66.5h115q4 0 8 1t8 1q14 0 20.5 -7.5t4.5 -16.5t-8 -18t-15 -16q-23 -4 -56.5 -5t-70.5 -1q4 -25 7.5 -49t5.5 -51q2 -2 2 -5t2 -7v-2q-6 -20 -25.5 -29.5 t-27.5 18.5q-6 31 -10.5 63t-8.5 62q-41 2 -79 3t-64 1q-14 2 -18.5 11.5t-1.5 19.5z" />
<glyph unicode="," horiz-adv-x="159" d="M37 -86q20 29 15 60.5t-7 62.5q4 27 26.5 35t26.5 -25q2 -25 7.5 -69t-27.5 -91q-18 -18 -34.5 -8t-6.5 35z" />
<glyph unicode="-" horiz-adv-x="315" d="M15 301q3 10 12.5 18.5t21.5 8.5q51 0 101.5 -1t99.5 -1q4 0 8 1t8 1q14 0 20.5 -7.5t4.5 -16.5t-8.5 -18.5t-14.5 -15.5q-59 -8 -116.5 -4t-116.5 4q-14 2 -18.5 11.5t-1.5 19.5z" />
<glyph unicode="." horiz-adv-x="153" d="M29 27.5q-2 9.5 0 21.5t10 23l4 4q2 0 2 1t2 1q23 23 44.5 13.5t8.5 -44.5q-4 -14 -10 -21.5t-16 -13.5q-8 0 -13 -4q-14 -2 -22 4t-10 15.5z" />
<glyph unicode="/" horiz-adv-x="503" d="M12 37q51 111 104.5 232.5t105.5 244.5t104.5 243.5t103.5 229.5q16 23 40 20t13 -32q-51 -111 -103 -231.5t-104.5 -244.5t-104.5 -245t-103 -231q-16 -16 -38 -14.5t-18 28.5z" />
<glyph unicode="0" horiz-adv-x="702" d="M7 471q-3 96 22.5 188.5t80 173.5t136.5 134q106 61 180 42.5t122 -82t74.5 -152.5t41.5 -167q10 -55 8 -124.5t-16.5 -141.5t-43 -138.5t-73.5 -113.5t-105.5 -68.5t-140.5 -3.5q-94 39 -156.5 110t-94.5 159t-35 184zM65.5 549.5q-6.5 -109.5 28.5 -217t107 -185.5 q76 -82 146.5 -83t126.5 46.5t93 125t45 153.5q10 109 -7 226.5t-61 202.5t-113 119t-163 -24q-98 -57 -147 -155.5t-55.5 -208z" />
<glyph unicode="1" horiz-adv-x="442" d="M14 754q6 27 27 32l10 15l60 69q27 33 55.5 66t60.5 65q4 18 20.5 25.5t24.5 -2.5q10 -4 12.5 -15.5t-5.5 -21.5q-10 -231 -6.5 -459.5t-4.5 -459.5q29 4 55.5 7t55.5 9q16 6 29 0q2 0 2 -2q14 -16 7 -29.5t-24 -23.5q-86 -16 -176 -22.5t-178 -2.5q-14 2 -17.5 10.5 t0 17.5t10.5 17t15 12q41 -2 83 -2t85 4q6 217 4 431.5t4 431.5q-41 -47 -80 -96.5t-80 -94.5q-23 -18 -40 -6q-8 16 -9 25z" />
<glyph unicode="2" horiz-adv-x="690" d="M8 840q12 53 66.5 99t125 75.5t149.5 40t143.5 -6t104.5 -63.5t32 -133q-14 -80 -57.5 -169t-100.5 -176t-120.5 -166t-118 -140.5t-90.5 -100.5t-40 -45q-2 0 36 5.5t96.5 11.5t127 15t127 15.5t98.5 11.5t42 5q10 4 18 -1t10 -22v-2q-4 -10 -6 -13t-18 -15 q-10 0 -72.5 -8.5t-147.5 -19.5t-178 -23.5t-165 -20.5q-14 2 -21 12q-14 -2 -20 13.5t8 31.5q66 78 155 183.5t170.5 216t142 214t70.5 181.5q6 53 -30.5 97t-89.5 54q-59 12 -119 4t-113 -31.5t-97 -61.5t-73 -87q-16 -25 -36.5 -17.5t-8.5 36.5z" />
<glyph unicode="3" horiz-adv-x="671" d="M6 199q0 10 7 19t15.5 14.5t16.5 2t12 -17.5q6 -25 9.5 -46t9.5 -38.5t19.5 -32t39.5 -24.5q86 -31 176 -1.5t159 90t105.5 139.5t17 148.5t-105.5 116.5t-262 43q-27 4 -21.5 24.5t21.5 31.5v2h6q94 37 135.5 86t41.5 96t-32 86t-79 53.5t-103.5 -1t-103.5 -77.5 q-33 2 -40 15.5t3 32t35 38t55.5 35t64.5 21.5t62 0q92 -23 139.5 -72t54.5 -106.5t-23.5 -114.5t-92.5 -98q152 -20 221.5 -87t74.5 -151t-41 -173t-123 -153.5t-175 -91t-196 11.5q-37 16 -54.5 34t-26 38.5t-12.5 46t-10 60.5z" />
<glyph unicode="4" horiz-adv-x="581" d="M4 506q12 63 30.5 123.5t36 120t31 121t17.5 124.5q4 27 26.5 35t26.5 -24q-6 -135 -45 -258l-37 -111q-2 -6 -4 -17.5t-5 -20.5t-6 -16.5t-3 -4.5l-9 -41q70 10 141.5 24t143.5 23q-8 109 -13 216t-7 216q4 27 26.5 35t26.5 -25q2 -111 7 -220.5t13 -219.5q70 2 142 -13 q25 -10 16.5 -31.5t-31.5 -25.5h-6q-49 8 -116 6q8 -109 13 -239.5t5 -241.5v-2v-6q0 -4 -2 -4q0 -4 -2 -4l-6 -9l-4 -6q-2 0 -4 -2q-4 -4 -11 -4q-4 -4 -8 0q-8 0 -10 6q-2 4 -4 7t-2 8v4q0 55 -2 117.5t-4.5 127t-6.5 128t-6 118.5q-78 -8 -162 -20.5t-157 -22.5 q-33 -4 -29 29z" />
<glyph unicode="5" horiz-adv-x="694" d="M4 176q-4 12 3 23.5t16.5 17.5t18.5 3t11 -17q12 -86 78 -122t147.5 -30t160.5 49t118 115q33 59 44 131t1 138.5t-42 122t-87 82t-132 18t-177 -65.5q-6 -10 -15.5 -17.5t-19.5 -2.5q-20 -4 -27 20q-2 35 -5 83t-8 94t-9 79t-6 37q-23 6 -13.5 28.5t25.5 28.5q6 0 36 5 t69.5 11.5t86 15.5t86 15t67.5 11.5t34 5.5q14 0 17 -8.5t-1 -18.5t-11 -19.5t-11 -11.5l-23 -4q-22 -4 -57 -9t-76 -11t-77 -12.5t-62.5 -11.5t-32.5 -5q0 -6 4 -34.5t7 -67.5t7.5 -80t4.5 -72q82 45 159.5 60.5t142 -3t112.5 -69.5t73 -135q33 -133 7.5 -250t-132.5 -203 q-51 -41 -133 -67.5t-163 -23.5t-142.5 44t-73.5 133z" />
<glyph unicode="6" horiz-adv-x="743" d="M4 246.5q-10 66.5 11.5 145.5t64.5 177.5t102 219t125 272.5q6 12 18.5 17t22.5 3t17.5 -11t1.5 -26q0 -6 -27 -58t-63.5 -122.5t-76.5 -148.5t-67 -137q80 70 165 91t162 3.5t137 -67.5t89 -120.5t20.5 -156.5t-69.5 -174q-29 -43 -83 -82t-116.5 -62.5t-127 -25.5 t-115.5 28q-90 53 -135.5 110.5t-55.5 124zM57 258q20 -76 68.5 -122t109 -65.5t128 -13.5t126 38t101.5 85t57 129q12 68 -5 127.5t-55 102.5t-91.5 66.5t-114.5 21.5q-63 -2 -128 -39t-113 -91.5t-73.5 -119t-9.5 -119.5z" />
<glyph unicode="7" horiz-adv-x="626" d="M1 983q-1 10 3 21.5t11.5 19.5t9.5 6q6 0 48 -2t101 -6t127 -8t125 -8.5t76 -5.5l57 -5q20 -2 21.5 -16t-9.5 -27v-2q0 -4 -20.5 -46t-56 -107.5t-80.5 -147.5t-91.5 -168t-91.5 -167t-80.5 -144.5t-56.5 -101.5l-20 -37q-2 -12 -9.5 -18.5t-16.5 -5.5t-16 8.5t-7 21.5 q0 4 34.5 71.5t88 166t115 213t114.5 213t88 166t35 71.5q-2 0 -37 3t-87 7t-112.5 8.5t-114 8.5t-90 6t-41.5 2q-16 0 -17 10z" />
<glyph unicode="8" horiz-adv-x="841" d="M2 128q2 50 38 112.5t92 128t110.5 120t95.5 90t45 37.5q-145 31 -207.5 80t-64.5 102.5t45 101.5t123.5 78t172 33t187.5 -36q25 -10 16.5 -31.5t-30.5 -25.5q-80 31 -164 31.5t-151.5 -18t-109.5 -52t-38 -72.5t65.5 -79t200.5 -69q8 8 34.5 38t57.5 59.5t57.5 52 t36.5 18.5q2 0 7 -4q18 -23 -7 -47l-35.5 -35.5l-42 -42t-38 -37t-25.5 -22.5q51 -14 106.5 -40t103.5 -60.5t84 -77.5t45 -89t-12.5 -96.5t-86.5 -99.5q-39 -31 -106.5 -65.5t-154.5 -58t-188.5 -28t-208.5 28.5q-55 25 -53 75zM67.5 161q-12.5 -40 18.5 -52 q61 -25 135 -27t146.5 10t141.5 36.5t122 53.5q76 41 105.5 84t25.5 83t-36 78t-80 69.5t-105.5 57.5t-112.5 44q-6 -4 -42 -38t-84 -85t-99 -109.5t-87 -111.5t-48.5 -93z" />
<glyph unicode="9" horiz-adv-x="737" d="M8 732q8 85 70 175q29 43 83 82t116.5 62.5t127 25.5t115.5 -28q90 -53 135 -110.5t55.5 -124t-11 -145.5t-64.5 -177.5t-102 -219t-125 -272.5q-6 -12 -18.5 -17.5t-23 -3t-17.5 11.5t-1 25q0 6 26.5 58.5t63.5 123t76 148.5t68 137q-80 -72 -165 -92t-162 -2.5 t-137.5 67.5t-89 120.5t-20.5 155.5zM68 752q-12 -68 5 -127.5t55 -102.5t91.5 -66.5t114.5 -21.5q63 2 127.5 39t113 91t73 119t9.5 120q-20 76 -68 122t-109.5 65.5t-128 13t-125 -38t-102.5 -85t-56 -128.5z" />
<glyph unicode=":" horiz-adv-x="163" d="M29 27.5q-2 9.5 0 21.5t10 23l4 4q2 0 2 1t2 1q23 23 44.5 13.5t8.5 -44.5q-4 -14 -10 -21.5t-16 -13.5q-8 0 -13 -4q-14 -2 -22 4t-10 15.5zM29 357.5q-2 9.5 0 21.5t10 22l4 5q2 0 2 1t2 1q23 23 44.5 13.5t8.5 -44.5q-4 -14 -10 -21.5t-16 -13.5q-8 0 -13 -4 q-14 -2 -22 4t-10 15.5z" />
<glyph unicode=";" horiz-adv-x="167" d="M29 357.5q-2 9.5 0 21.5t10 22l4 5q2 0 2 1t2 1q23 23 44.5 13.5t8.5 -44.5q-4 -14 -10 -21.5t-16 -13.5q-8 0 -13 -4q-14 -2 -22 4t-10 15.5zM37 -86q20 29 15 60.5t-7 62.5q4 27 26.5 35t26.5 -25q2 -25 7.5 -69t-27.5 -91q-18 -18 -34.5 -8t-6.5 35z" />
<glyph unicode="&#x3c;" horiz-adv-x="329" d="M14 295q-12 25 17 57q31 27 66.5 52.5t68.5 45t56.5 33t29.5 17.5q14 10 24.5 8t14.5 -10.5t2 -19.5t-14 -19q-8 -6 -38 -27.5t-64 -44t-62.5 -43t-34.5 -22.5q2 -2 22.5 -18.5t51 -39t67.5 -47t74 -43.5q10 -55 -31 -53q-4 0 -29.5 16.5t-62.5 42t-79 56t-79 59.5z" />
<glyph unicode="=" horiz-adv-x="411" d="M15 323.5q3 10.5 12.5 18.5t21.5 8h283q4 0 8 1t8 1q14 0 20.5 -7t4.5 -16.5t-8.5 -18.5t-14.5 -15q-29 -4 -70.5 -5t-85.5 0t-86 2t-73 1q-14 2 -18.5 11t-1.5 19.5zM15 454.5q3 10.5 12.5 18.5t21.5 8h283q4 0 8 1t8 1q14 0 20.5 -7t4.5 -16t-8.5 -18.5t-14.5 -15.5 q-29 -4 -70.5 -5t-85.5 0t-86 2t-73 1q-14 2 -18.5 11t-1.5 19.5z" />
<glyph unicode="&#x3e;" horiz-adv-x="327" d="M12 174q37 18 74 43t67.5 47.5t50 38.5t23.5 19q-6 2 -34.5 22.5t-62.5 43t-63.5 44t-37.5 27.5q-12 8 -14.5 19t1.5 19.5t14.5 10.5t24.5 -8q6 -4 30 -17.5t56.5 -33t68.5 -45t66 -52.5q29 -32 17 -57q-37 -29 -79 -59.5t-79 -56t-62.5 -42t-29.5 -16.5q-41 -2 -31 53z " />
<glyph unicode="?" horiz-adv-x="550" d="M6 954q115 104 216.5 112.5t173 -52t103 -173t5.5 -247.5q-25 -129 -107 -190.5t-235 -36.5q4 -16 10 -39t13.5 -45.5t12.5 -43t5 -32.5q-6 -20 -25.5 -29.5t-27.5 19.5q0 2 -10.5 31.5t-19.5 67.5t-15.5 74t-0.5 50l23 10q66 -31 128 -23.5t109.5 45t75 103.5t21.5 154 q-6 106 -41 177.5t-89.5 102.5t-123 18.5t-144.5 -73.5q-6 -10 -16 -13t-19.5 0t-16.5 11t-5 22zM147.5 25.5q-2.5 9.5 0 21.5t10.5 23l4 4q2 0 2 1t2 1q23 23 44 13.5t9 -44.5q-4 -14 -10 -21.5t-16 -13.5q-8 0 -13 -4q-14 -2 -22 4t-10.5 15.5z" />
<glyph unicode="@" horiz-adv-x="1132" d="M4 160.5q-10 107.5 20.5 213t102.5 175.5q74 74 175 109.5t210 37.5t213 -28.5t184 -87.5q39 -29 73 -78t59.5 -104.5t39 -108.5t11.5 -86q-4 -78 -48.5 -132.5t-99.5 -87t-107.5 -42.5t-70.5 0q-18 18 -32.5 47.5t-30 60.5t-37 58.5t-56.5 42.5q-12 6 -36.5 11t-45.5 -1 q-8 -4 -27.5 -14.5t-40 -25t-35.5 -28.5t-11 -24q25 -14 49 -15.5t48 3.5t48.5 12.5t48.5 11.5q14 0 20.5 -8.5t4.5 -18.5t-10.5 -19t-20.5 -11q-6 0 -32.5 -8.5t-67.5 -16.5q-76 -14 -108 3t-30.5 50t29 72t68.5 66.5t90 34.5t92 -21q45 -31 66.5 -62.5t42.5 -66.5 q0 70 -21.5 135t-61.5 106t-97.5 45.5t-127.5 -47.5q-8 -4 -28.5 -18t-34.5 -27q-4 -16 -16.5 -25.5t-28.5 3.5l-4 4q-10 20 6 43q16 18 38.5 33.5t41.5 29.5q63 47 119.5 56.5t102.5 -10t80 -61.5t55.5 -97.5t27.5 -118t-4 -123.5l50 8t48 15q82 37 108.5 105.5t16.5 143 t-52 145t-98 111.5q-74 53 -170 81t-195 27t-191.5 -32t-155.5 -92q-43 -43 -67.5 -106.5t-32 -132t2 -135t35.5 -117.5q37 -72 105.5 -118t144.5 -73q55 -16 113.5 -23.5t116.5 -11.5q49 -2 94 9.5t78.5 20.5t51 8t9.5 -28q-33 -35 -96.5 -51t-149.5 -18q-94 4 -179 25.5 t-171 60.5q-96 43 -148.5 136t-62.5 200.5z" />
<glyph unicode="A" d="M0 98q-1 4 -1 9q0 8 3 14q31 66 75 176.5t97 236t114.5 255t123.5 231.5q9 6 16 6q4 0 8 -2q10 -6 19 -18q53 -98 98 -223.5t82 -252.5q10 0 20.5 1t20.5 1q14 0 20 -8t4 -18t-10 -19.5t-20 -11.5h-21q20 -72 38 -138.5t32 -122.5t25.5 -98t21.5 -67q-4 -33 -30 -36h-6 q-23 0 -36 24q-23 109 -47 216t-55 216q-90 -10 -186.5 -27.5t-219.5 -23.5q-37 -84 -72.5 -168t-68.5 -170q-10 -12 -19.5 -11t-16.5 9t-9 20zM213 477q92 6 182 21.5t183 25.5q-31 106 -67 211t-77 207q-55 -117 -111.5 -232.5t-109.5 -232.5z" />
<glyph unicode="B" horiz-adv-x="579" d="M-129 104q-5 9 -5 18q0 11 7 21q12 19 35 9q16 -18 30.5 -40t34.5 -38q29 -20 72 -21q-2 217 -9 431t-11 431q-23 0 -41.5 0.5t-30.5 2.5q-14 2 -18.5 11t-1 19t12.5 18.5t21 8.5q16 -2 29.5 -1.5t26.5 0.5v19q5 27 27 35q4 2 8 2q15 0 18 -26v-33l94 -10q37 -4 88 -12.5 t97 -26.5t76 -50q26 -28 26 -75v-13q-4 -29 -31 -57.5t-67 -56t-86 -54t-87 -51.5q43 -2 85 -4t83 -8q136 -19 182 -73q31 -38 32 -81q0 -19 -6 -41q-20 -68 -91.5 -140.5t-162.5 -125.5q-92 -52 -190 -76q-45 -11 -85 -11q-48 0 -88 15q-27 10 -41.5 36t-32.5 48zM78 911 l14 -348v2q39 29 81 53.5t83 50t78 54.5t67 63q-6 33 -37.5 56.5t-78.5 37t-102.5 20.5t-104.5 11zM88 508q4 -113 6 -223.5t4 -223.5q0 -2 -2 -4q68 12 143.5 54.5t139 97.5t104.5 114.5t39 106.5q-43 33 -96 49.5t-110.5 22.5t-116 6h-109.5h-2z" />
<glyph unicode="C" horiz-adv-x="641" d="M7 299q3 104 34 221t77 215.5t100 165t106 72.5q20 2 38 2q44 1 68 -13q36 -20 53 -54t21 -79t10 -90q2 -25 -20.5 -36t-30.5 18q-4 41 -6 80t-15 76q-12 33 -42 47q-13 6 -28 6q-18 0 -36 -10q-47 -27 -91 -85.5t-79 -132t-60.5 -158.5t-33.5 -165q-4 -38 -4 -73 q0 -40 4 -78q10 -70 43 -115q35 -49 96 -55q15 -2 31 -3q46 -1 94 15q64 20 118 58t76 81q8 14 14.5 32.5t10.5 34.5q10 23 29.5 26t23.5 -26q-23 -78 -68.5 -136t-108 -94t-136.5 -45q-21 -3 -43 -3q-53 0 -107 16q-77 23 -109 102q-29 72 -29 165v18z" />
<glyph unicode="D" horiz-adv-x="628" d="M-18 30q8 10 18 15q70 10 132.5 14t118.5 15.5t108.5 37t103.5 76.5q63 62 83 156q11 51 10 104q0 44 -8 90q-16 100 -62 193.5t-113.5 158t-150.5 86.5q-29 8 -59 8q-55 0 -112 -26q16 -213 22.5 -424.5t20.5 -424.5q-6 -20 -25.5 -29.5t-27.5 18.5q-14 223 -21.5 444.5 t-23.5 444.5q-2 14 8 25.5t27 11.5q64 21 121 20q50 0 97 -15q99 -34 175 -111.5t123 -186t58 -219.5q3 -33 3 -64q0 -76 -18 -146q-26 -99 -101 -157q-72 -57 -121 -83.5t-98 -38t-110.5 -16.5t-157.5 -19h-7q-11 0 -15 5q-6 6 -6 14q-1 11 8 23z" />
<glyph unicode="E" horiz-adv-x="616" d="M-2 1001q2 12 9 21.5t16.5 12.5t17.5 -2t10 -19q111 2 218.5 12t215.5 12q14 0 20.5 -8t4.5 -18.5t-10 -19.5t-21 -11q-106 -2 -212.5 -11t-215.5 -14q2 -184 12 -368q84 2 163 12t161 12q14 0 20.5 -8t4.5 -18.5t-10.5 -19.5t-20.5 -11q-78 -2 -157 -11t-156 -14 q4 -109 9 -214t7 -212q119 6 233.5 24.5t233.5 23.5q15 0 21 -8q5 -6 4 -14v-5q-2 -10 -10.5 -19.5t-20.5 -11.5q-127 -4 -250 -24.5t-252 -24.5q-20 2 -21.5 16.5t9.5 26.5v2q-2 229 -16.5 455.5t-16.5 455.5z" />
<glyph unicode="F" horiz-adv-x="262" d="M-52 949q3 9 10 17.5t15 12.5h31.5t32.5 2v51q5 27 27 35q4 2 8 2q15 0 18 -27v-57q119 8 237.5 21.5t237.5 17.5q15 0 21 -8q5 -6 4 -14q0 -13 -10 -24q-8 -9 -21 -11q-117 -4 -234.5 -16.5t-234.5 -22.5v-310q63 8 123.5 22.5t124.5 18.5q14 0 20.5 -8t4 -18 t-10.5 -19.5t-20 -11.5q-12 0 -38 -5t-59.5 -11t-70.5 -13.5t-74 -11.5v-498q-6 -20 -26 -29q-5 -2 -8 -2q-13 0 -19 21v504h-2q-27 4 -21 24.5t23 30.5v312q-18 0 -35.5 -1t-34.5 -1q-14 2 -18 10q-2 5 -2 9t1 8z" />
<glyph unicode="G" horiz-adv-x="747" d="M3 385q-3 30 -3 61q0 91 24 188q33 130 121 240q35 43 95.5 94.5t127.5 77.5q46 18 91 18q22 0 43 -4q67 -13 116 -99q23 -41 25 -87.5t10 -93.5q2 -25 -20.5 -36t-30.5 18q-8 41 -11 82t-20 78q-31 72 -86 81q-15 2 -30 2q-41 0 -83 -17q-59 -25 -112 -69.5t-80 -78.5 q-41 -53 -68.5 -122t-39.5 -144q-10 -59 -10 -118v-33q4 -75 22 -140q33 -113 108 -158q66 -39 139 -39q11 0 23 1q86 7 163 61.5t110 140.5q0 14 2 39.5t3 54.5t3 54.5t4 41.5q-23 6 -48 6q-20 0 -41 -4q-48 -8 -89 -12q-14 2 -18.5 10t-1.5 17.5t10.5 17.5t15.5 12 q25 2 53.5 6.5t58 7.5t57.5 2t50 -14l10 -14q0 -4 -1 -6t-1 -4q-10 -174 -15 -321.5t-13 -227.5v-10h-4q-10 -16 -27 -19h-3q-15 0 -20 21q2 53 3 83.5t1 52t-1 40t-1 47.5q-37 -51 -87 -84t-107 -47q-43 -10 -86 -10q-15 0 -31 1q-59 5 -115 29q-76 27 -125 117t-60 209z " />
<glyph unicode="H" horiz-adv-x="710" d="M-3 438q7 10 17 15l25 6q0 147 -5 291.5t-30 267.5q0 10 7 19.5t15 14.5q5 3 11 3q3 0 6 -1q8 -3 12 -18q25 -125 30 -271.5t5 -295.5q72 14 146.5 19.5t146.5 13.5q2 0 25.5 2t52 4t54.5 5t32 3h4q-4 121 -7 236.5t-5 220.5q4 27 26.5 35t26.5 -25q2 -104 6 -222t8 -241 h17q19 18 35 5q8 -6 8 -16t-9 -22q-10 -16 -49 -26q4 -106 9 -207.5t14 -194.5l6 -16q0 -4 -1 -5t-1 -5q0 -2 -2 -2q0 -2 1 -3t1 -3h-4q-7 -17 -25 -21q-3 -1 -6 0q-13 0 -18 21q-10 96 -16.5 204.5t-10.5 223.5q-53 -6 -105.5 -6.5t-72.5 -2.5q-59 -6 -96 -8t-67 -4 t-57.5 -6t-66.5 -12q2 -92 3 -180.5t9 -165.5q-6 -20 -25.5 -29.5t-27.5 18.5q-8 78 -9 165t-1 179l-23 -6q-16 -3 -22 5q-5 6 -5 15q0 11 8 23z" />
<glyph unicode="I" horiz-adv-x="350" d="M13 39q3 10 12.5 18.5t21.5 8.5q29 0 57.5 1t57.5 3q0 96 -1 212.5t-2 236.5t-2 234.5t-3 209.5q-20 -2 -40 -3.5t-40 -1.5q-14 2 -18.5 10.5t-1.5 17.5t10.5 17.5t15.5 12.5q57 2 113.5 8t111.5 8q15 0 21 -8q5 -6 4 -14q0 -13 -10 -24q-8 -9 -21 -11l-92 -6 q2 -96 3 -213t2 -237t2 -235.5t1 -209.5q14 2 28.5 2h30.5q14 0 20.5 -8.5t4.5 -18.5t-10 -19.5t-21 -11.5q-59 0 -117.5 -5t-117.5 -5q-15 2 -19 12q-3 6 -2 11q0 4 1 8z" />
<glyph unicode="J" horiz-adv-x="665" d="M8 236q-1 12 -1 24q0 24 3 48q4 36 4 67q4 27 26.5 35t27.5 -25q0 -25 -4.5 -55.5t-4.5 -62t7.5 -60.5t25.5 -49q45 -45 106 -64q47 -13 93 -13l31 1q61 6 114 40t78 93q37 86 46 187q7 77 7 155q0 26 -1 53q-3 105 -13 208.5t-14 193.5q4 27 27 35q4 2 8 2q15 0 18 -27 q4 -90 14 -198.5t14 -217.5v-51q0 -84 -8 -165q-12 -105 -51 -189q-31 -66 -92 -112t-135 -63q-35 -7 -70 -7q-39 0 -78 9q-75 19 -133 83q-25 25 -34 57.5t-11 67.5z" />
<glyph unicode="K" horiz-adv-x="780" d="M-8 987q4 27 26 35q4 2 9 2q15 0 18 -27q2 -121 8 -239.5t15 -239.5q2 0 4 -2q53 33 116.5 79t126 96t117.5 102.5t94 97.5q23 16 36 2t-1 -37q-37 -43 -87 -91t-107.5 -95t-117 -91t-114.5 -81q4 -4 41 -25.5t93.5 -51.5t124 -66t131 -67.5t116.5 -58t80 -39.5q2 0 3 -1 t5 -1q2 0 6 -4q9 -10 9 -21q0 -9 -5 -17q-12 -20 -34 -15q-27 12 -77 38t-109.5 57.5t-126 67.5t-127 67.5t-112 55t-81.5 34.5q8 -121 14 -240t8 -238v-12l-2 -4l-2 -4q0 -2 -1 -2t-1 -2q-4 -4 -4 -6q-4 0 -4 -4q-2 0 -4 -2l-2 -3q-2 0 -4 -2q-4 0 -5.5 -1t-3.5 -1h-2 q-4 0 -4 2q-2 0 -4 2l-4 5q-6 6 -6 12q0 129 -7 259t-16.5 259t-16.5 259t-9 259z" />
<glyph unicode="L" horiz-adv-x="600" d="M-2 1001q2 12 9 21.5t17 12.5q4 1 6 1q6 0 11 -3q8 -5 10 -19q2 -10 5 -80t7.5 -169t7.5 -214t6 -212t5 -163.5t2 -71.5q119 6 233.5 24.5t233.5 23.5q15 0 21 -8q5 -6 4 -14v-5q-2 -10 -10.5 -19.5t-20.5 -11.5q-127 -4 -250 -24.5t-252 -24.5q-20 2 -21.5 16.5 t9.5 26.5v2q-2 229 -16.5 455.5t-16.5 455.5z" />
<glyph unicode="M" horiz-adv-x="892" d="M-6 26.5q0 10.5 6 10.5q2 0 12.5 46t24.5 123t31.5 174t33 198.5t29.5 198.5t23 175v4v11q4 27 26.5 35t26.5 -25q6 -37 25.5 -93.5t45 -121t53 -129t51.5 -116.5t39 -84t17 -30q61 121 115.5 242t98.5 218.5t74 155.5q28 54 39 54h1q12 -4 19.5 -55t13.5 -134t10 -191.5 t10 -229.5t14.5 -249t20.5 -249q-6 -17 -24 -29q-7 -4 -13 -4q-11 0 -18 15q-23 240 -35 487.5t-23 489.5q-2 -2 -23.5 -48.5t-52 -116t-66.5 -148.5t-69.5 -146.5t-60.5 -112.5t-37 -43q-6 0 -26.5 36t-46 90t-54.5 117.5t-52.5 120t-38.5 95.5t-15 45 q-10 -66 -23.5 -150.5t-29 -173t-30 -172.5t-27.5 -150.5t-22.5 -108.5t-13.5 -42q-10 -14 -28.5 -19t-28.5 11v2q-2 6 -2 16.5z" />
<glyph unicode="N" horiz-adv-x="727" d="M4 4q-1 2 -1 14t1 35q2 45 6 117t9.5 161t11.5 182t11 183t10 162t8.5 117t5.5 51q4 32 30 32h2q28 -1 41 -18q45 -80 95.5 -175t101.5 -190t98 -184.5t84 -158t60.5 -110.5t27.5 -44q-2 4 -3 60.5t-2 138.5t-2 177t-2 178t-2 139.5t-1 60.5q2 16 4 27.5t14 21.5 q10 8 19.5 9t19.5 -9q4 -74 7 -167q4 -92 5 -190v-97v-95q-1 -94 -2.5 -168t-2.5 -119l-1 -45q0 -18 -13 -31.5t-32 -0.5q-84 115 -144 223t-114.5 215.5t-110 219.5t-126.5 232q-2 -80 -8.5 -179t-12.5 -202.5t-13 -203t-12 -178t-9.5 -128t-4.5 -53.5q-5 -20 -25 -30 q-5 -2 -9 -2q-13 0 -19 22z" />
<glyph unicode="O" d="M7 375q-2 27 -2 55q-1 65 11 132q16 95 54.5 185.5t91.5 158.5q52 68 120 106q58 33 125 33q10 0 21 -1q104 -16 175 -69t111 -129t51 -167q5 -42 6 -84q0 -49 -8 -99q-13 -92 -50 -178.5t-93 -151.5q-56 -66 -132 -104q-65 -32 -141 -32q-12 0 -25 1q-102 6 -169 54 t-103 123t-43 167zM72 559q-9 -54 -9 -105q1 -56 11 -109q20 -101 82.5 -175t177.5 -90q98 4 176 67.5t126 157.5t64 206q6 43 6 85q0 66 -16 126q-24 99 -92 171t-186 90h-5q-83 1 -152 -59q-71 -62 -118 -157t-65 -208z" />
<glyph unicode="P" horiz-adv-x="524" d="M-11 986q7 18 23 26q61 10 129 12h30q53 0 105 -5q66 -7 129.5 -25.5t116.5 -49.5q55 -31 92 -86q36 -54 48 -118q4 -24 5 -49q1 -39 -11 -77q-18 -62 -74 -106q-53 -43 -112.5 -71.5t-124 -47t-132.5 -29t-135 -18.5q4 -80 8 -161t6 -163q-6 -20 -26 -30q-5 -2 -8 -2 q-13 0 -19 22q-4 240 -22.5 475.5t-22.5 474.5q-8 6 -8 16q0 5 3 12zM47 954q4 -141 11.5 -277t17.5 -276l6 5q18 6 27 -3q104 10 208.5 35t190.5 82q52 37 78 87q24 46 24 96v7q-2 54 -31.5 102t-86.5 79q-53 29 -107.5 43t-110.5 18q-45 3 -91 3h-23q-56 -1 -113 -1z" />
<glyph unicode="Q" horiz-adv-x="786" d="M3 500q1 96 24.5 190t66.5 169t103.5 124t138.5 53q115 0 196.5 -48t132 -127t71.5 -178q15 -72 15 -146q0 -27 -3 -53q-7 -101 -43.5 -195t-98.5 -160q35 -47 69 -93t68 -91q8 -18 -3 -35q-9 -13 -25 -13q-4 0 -8 1h-2l-9 10q-35 43 -67.5 89t-65.5 93q-39 -29 -83 -48 t-95 -24q-21 -2 -41 -2q-76 0 -134 30q-73 38 -119 106.5t-67 159.5q-21 87 -21 179v9zM58 502v-6q0 -112 34 -205q35 -96 108 -159q70 -62 182 -62h7q41 8 75 25.5t64 43.5q-39 52 -84 103q-10 20 2.5 38.5t34.5 8.5q45 -49 88 -107q51 61 80 144.5t35 171.5q1 22 1 43 q0 66 -13 130q-19 85 -62 152.5t-112.5 108.5t-167.5 41q-84 -10 -145.5 -82t-93.5 -172.5t-33 -216.5z" />
<glyph unicode="R" horiz-adv-x="667" d="M10 1001q2 16 13.5 25.5t21.5 9.5q8 8 14 11q75 6 131 12q28 3 55 3t52 -3q51 -6 103.5 -29.5t117.5 -73.5q25 -18 39 -47.5t20.5 -62.5t5.5 -63.5t-10 -51.5q-23 -49 -59.5 -99t-82.5 -95t-98 -81t-104 -59q106 -37 210 -101.5t190 -117.5q2 0 4 -1t4 -1l-2 -2 q8 -9 8 -19q0 -7 -5 -15q-11 -18 -34 -17q-4 4 -10 4q-6 2 -8 8q-57 35 -125 74t-134.5 73.5t-128 59.5t-106.5 29q-14 2 -18 11t-1 19.5t12 18.5t21 8q33 0 85.5 20.5t109.5 55.5t109 81q54 46 84 97q32 53 31 107q0 52 -44 102q-41 47 -91 70.5t-104 30.5q-42 5 -86 5h-25 q-56 -2 -112 -8q4 -246 18.5 -488.5t18.5 -488.5q-6 -20 -26 -30q-5 -2 -8 -2q-13 0 -19 22q-4 252 -18.5 500.5t-18.5 498.5z" />
<glyph unicode="S" horiz-adv-x="765" d="M6 683q-1 11 -1 24q0 44 11 106q29 100 106 146.5t172 55.5q31 3 63 3q65 0 130 -12q98 -18 170 -48q16 -16 4 -35.5t-34 -17.5q-37 14 -89.5 27.5t-109.5 21.5q-43 6 -86 5q-14 -1 -28 -1q-58 -2 -108 -17t-87 -48t-51 -86q-10 -40 -10 -72q0 -27 7 -48q15 -46 52 -73.5 t91 -41t113.5 -21.5t118 -15.5t107.5 -23.5q119 -38 151 -102q17 -35 17 -72q1 -30 -11 -60q-26 -68 -94.5 -132t-151.5 -101t-167 -38h-3q-82 0 -134 54q-18 20 -48 55.5t-46 71.5q-13 29 -14 56q0 6 1 13q4 32 53 44q12 -10 15.5 -22.5t4.5 -26.5t2 -31.5t9 -38.5 q14 -35 48 -62.5t71 -37.5q26 -7 54 -7q21 0 45 4q54 9 106.5 32.5t96.5 58.5t69 76q31 52 31 90v9q-4 40 -35 64.5t-80.5 39t-104.5 23.5t-110.5 15.5t-96.5 18.5q-72 20 -119 40.5t-71.5 53.5t-28.5 83z" />
<glyph unicode="T" horiz-adv-x="473" d="M7 972q3 9 10.5 17t15.5 12q18 0 62 3.5t101.5 7.5t120 8t119 8t100.5 7t62 3q14 0 20 -8q5 -6 5 -14q-1 -13 -11 -24q-8 -9 -20 -11l-262 -16q2 -96 3 -212t2 -236t2 -234.5t1 -208.5q6 -38 -3 -54q-8 -14 -20 -14h-3q-14 2 -23.5 19.5t-3.5 44.5q0 96 -1 212.5 t-2 236.5t-2 234.5t-4 209.5q-10 0 -46.5 -3.5t-77.5 -6.5t-78 -6t-47 -3q-15 2 -19 10q-3 5 -2 11q0 3 1 7z" />
<glyph unicode="U" horiz-adv-x="759" d="M2 551q-1 43 -1 85q1 80 5 160q8 122 17 244q2 12 11 21.5t18 11.5q2 1 4 1q6 0 12 -5q8 -6 8 -22q-10 -121 -18 -241q-5 -78 -4 -156q0 -42 1 -83q4 -47 6 -94t11 -94q12 -80 34.5 -147.5t62.5 -108.5q39 -41 101 -51q14 -2 31 -3q53 0 123 27q47 20 98 58.5t82 78.5 q43 55 59.5 121t17.5 134v14q0 62 -8 124q-9 68 -22 130q-4 18 -8 45.5t-10 56.5t-14.5 57.5t-20.5 49.5q-18 10 -6 36q4 2 4 5q10 10 22.5 15t22.5 -11q14 -23 24.5 -52.5t17.5 -62.5t12 -63.5t10 -53.5q12 -63 22 -140q9 -70 9 -140v-14q-1 -78 -21.5 -151t-71.5 -128 q-37 -37 -79 -75t-89 -66q-47 -30 -101 -46q-40 -12 -82 -12q-15 0 -30 2q-88 4 -137 62.5t-74.5 141.5t-34 175t-14.5 164z" />
<glyph unicode="V" horiz-adv-x="681" d="M0 936q2 12 9 20.5t16.5 9.5t19.5 -12q86 -223 186.5 -435t202.5 -427q88 219 151.5 447.5t108.5 457.5q13 24 36 24h5q27 -3 31 -36q-12 -33 -28.5 -95.5t-38 -144t-47 -176t-56.5 -190.5t-65.5 -186.5t-75.5 -163.5q-9 -13 -19 -19q-4 -3 -8 -2q-7 0 -16 6 q-61 102 -123 231.5t-115 255.5t-97 236t-75 176q-3 7 -3 14q0 5 1 9z" />
<glyph unicode="W" horiz-adv-x="1024" d="M1 946q3 12 11 20.5t18.5 9.5t16.5 -11q8 -14 32.5 -82t57.5 -160t70 -196.5t69.5 -194.5t55 -151.5t28.5 -69.5q6 2 23.5 29.5t40 71.5t47.5 96t47.5 104.5t39.5 97.5t26 72q10 23 29.5 25.5t23.5 -25.5q-2 -14 8 -47t27.5 -77t41 -93.5t47 -94.5t46 -81.5t39.5 -55.5 q2 0 18.5 61.5t38 153.5t46 200.5t46 201t34.5 154.5l13 61q2 2 1 3t1 5q8 17 24 25q4 2 9 2q11 0 19 -19v-4h2q0 -2 -1 -2t-1 -2t1 -2t1 -2q0 -16 -6 -25q0 -6 -8.5 -49t-21.5 -108.5t-31.5 -147.5t-39 -167t-40 -166t-37 -142.5t-30 -98t-18.5 -34.5q-20 0 -35 10 q-25 27 -56.5 77t-64 110.5t-61 123t-47.5 115.5q-2 -2 -17.5 -34t-37 -78t-48 -99t-48 -99t-35.5 -77l-15 -31q-10 -28 -30 -28q-1 1 -3 1q-22 2 -38 33q-10 10 -39 79t-63.5 164t-72.5 203.5t-71 201t-55.5 155t-24.5 66.5q-4 7 -4 14q0 4 1 8z" />
<glyph unicode="X" horiz-adv-x="811" d="M-2 62q2 14 9 27l7 13q10 10 36 42t59.5 76t71.5 93t72 92.5t59.5 76t35.5 42.5q-6 6 -30.5 43t-57.5 88.5t-70.5 109.5t-69.5 108.5t-52.5 83t-20.5 34.5q-4 12 3 23.5t16.5 17.5t18.5 3t11 -17q0 -4 20.5 -38t51.5 -83t67.5 -104.5t68.5 -103.5t56.5 -82t30.5 -38 q14 16 45 58.5t68 93.5t75.5 106.5t71.5 101.5t53.5 75.5t20.5 31.5q12 9 22 9q8 0 14 -7q13 -14 -1 -37q2 -6 -18.5 -38.5t-53.5 -79.5t-74 -102.5t-79.5 -106.5t-71.5 -92t-47 -58q12 -10 38.5 -48t62.5 -88t75 -106.5t73.5 -105.5t60.5 -84t34 -41q8 -10 8 -21.5 t-6 -19.5t-16 -11q-3 -1 -6 -1q-8 0 -17 6q-10 8 -35.5 43t-60.5 85t-73 106.5t-73 107.5t-62.5 88t-37.5 47l-334 -440l-4 -6l-2 2l-4 -6q-27 -4 -34 6q-5 8 -5 18v7z" />
<glyph unicode="Y" horiz-adv-x="878" d="M-6 913q2 12 12 21.5t21.5 11.5t21.5 -3t10 -21q14 -279 34 -435.5t34 -207.5q23 -82 80 -139.5t128 -75.5q29 -8 59 -8q42 0 84 16q73 26 128 114q49 78 76 162t38 172q10 81 10 163v15q-1 90 -7 183q-12 12 -2 32q-10 6 -4 27q2 2 2 6q6 16 21 24q6 3 11 3q8 0 15 -10 l14 -63q13 -62 27 -164.5t21 -231.5q3 -48 3 -97q0 -82 -7 -165q-13 -133 -52 -258t-117 -217q-47 -55 -109.5 -89t-129.5 -44q-22 -3 -45 -3q-44 0 -89 13q-67 18 -124 65q-12 10 -34 39t-35 59.5t-9 56t41 32.5q10 6 17 -11.5t17.5 -44t27 -57.5t45 -55.5t71.5 -35.5 q19 -5 42 -5q30 0 67 8q125 25 201.5 110.5t116.5 205.5t50 261q6 78 6 154q0 61 -4 121q-12 -90 -36.5 -187.5t-72.5 -178.5t-122 -132q-69 -47 -169 -47h-16q-96 4 -156.5 49t-97 119t-53 167t-26 193.5t-15.5 199.5t-20 183z" />
<glyph unicode="Z" horiz-adv-x="796" d="M10 68q23 27 81.5 95t133 156.5t154.5 183.5t148.5 175t113.5 132t49 56q-47 14 -124 33t-159.5 38t-159.5 37t-124 34q-20 16 -10 36.5t32 20.5q53 -18 137.5 -36.5t173.5 -39t171 -42t133 -44.5q11 -11 11 -19v-2q-1 -8 -17 -26q-23 -27 -78 -94.5t-127 -153.5 t-151 -179t-146.5 -172t-116.5 -133t-61 -61q29 4 80 12.5t112.5 21t127 25.5t127 24.5t111.5 21.5t79 14q8 6 20 6q6 0 12.5 -1t10.5 -1q23 -10 13.5 -25.5t-19.5 -31.5q-16 -2 -73 -13.5t-132.5 -27.5t-160.5 -31.5t-162 -28t-133 -15.5q-13 -1 -24 -1q-37 0 -51 8 q-13 9 -13 21q0 13 11 27z" />
<glyph unicode="[" horiz-adv-x="245" d="M6 988q8 20 25 26h4q4 2 26.5 8t49 10t50 8t34.5 4q14 0 20 -6t4 -15t-8 -18.5t-14 -15.5l-2 -2q-43 -4 -83 -11t-46 -15q4 -233 0.5 -465t1.5 -463h63.5t63.5 2q8 2 15 -3t9 -22v-2q-10 -27 -33 -31q-37 -4 -72.5 -3t-76.5 1q-29 4 -21 27q-2 2 -2 6q-4 238 -1 476.5 t-1 473.5q-14 10 -6 30z" />
<glyph unicode="\" horiz-adv-x="540" d="M20 975q-10 29 14 32t40 -20q51 -109 103 -229.5t104.5 -243.5t104.5 -245t106 -232q4 -27 -17.5 -29t-38.5 15q-51 111 -103 231.5t-104.5 244.5t-104.5 244.5t-104 231.5z" />
<glyph unicode="]" horiz-adv-x="253" d="M10 8v2q2 16 9.5 21.5t15.5 3.5q33 -2 63.5 -2h63.5q4 231 1 477t1 479q-4 4 -16.5 3t-30 -3t-40 -3t-42.5 1l-2 2q-8 6 -14.5 15.5t-8.5 18.5t3 15t22 6q8 0 32.5 1.5t51 1.5t49 -1.5t27.5 -3.5h4q16 -6 24 -25.5t-6 -29.5q-4 -236 -1 -488.5t-1 -490.5q0 -4 -2 -6 q9 -23 -20 -27q-41 0 -77 -1t-73 3q-23 4 -33 31z" />
<glyph unicode="^" horiz-adv-x="450" d="M25 811q0 4 16 29.5t42 62.5t56.5 79t59.5 79q25 12 57 -17q27 -31 52.5 -66.5t45 -68t32.5 -56.5t17 -30q10 -14 8.5 -24.5t-10 -14.5t-19.5 -2t-20 15q-6 8 -27.5 37.5t-44 63.5t-43 62.5t-22.5 34.5q-2 -4 -18.5 -23.5t-39 -50t-47 -67.5t-42.5 -74q-55 -10 -53 31z " />
<glyph unicode="_" horiz-adv-x="552" d="M32 28.5q3 10.5 12 18.5t22 8h83t121.5 -1t121 -1h81.5q4 0 8 1t8 1q31 0 28 -23.5t-25 -33.5q-29 -4 -90.5 -4t-129 1t-129 2t-92.5 1q-14 2 -18 11t-1 19.5z" />
<glyph unicode="`" horiz-adv-x="286" d="M6 1186q-10 20 2 38.5t35 8.5q35 -31 76 -49.5t82 -40.5q6 -4 17 -9.5t20.5 -9.5t13.5 -8t-2 -4q27 -4 19.5 -28.5t-29.5 -28.5q-12 0 -46 16t-72 37.5t-71 44.5t-45 33z" />
<glyph unicode="a" horiz-adv-x="540" d="M20 268q-4 7 -4 15q0 13 11 28q16 18 38.5 33.5t40.5 30.5q83 61 151 60q13 1 25 -1q78 -14 130 -78q52 -62 72 -158q11 -50 10 -99q0 -45 -9 -89q-4 -16 -17 -26q-6 -5 -12 -5q-8 0 -18 7q-16 25 -28.5 51t-26.5 51t-33.5 46.5t-50.5 33.5q-12 6 -36.5 11t-45.5 -1 q-8 -4 -27.5 -14t-40 -24.5t-36 -29t-11.5 -24.5q25 -14 49.5 -15t48 4t48 12t49.5 11q14 0 20.5 -8t4 -18.5t-10.5 -19.5t-20 -11q-6 0 -33 -8t-68 -17q-34 -6 -59 -6q-31 0 -49 10q-32 18 -30.5 50t29.5 71t68.5 67t90.5 35q10 1 19 1q39 0 73 -23q45 -31 66.5 -62.5 t41.5 -66.5q0 70 -21.5 135.5t-61.5 106.5t-97 45h-8q-54 0 -119 -47q-8 -4 -28.5 -18.5t-34.5 -26.5q-4 -16 -16.5 -25.5t-28.5 2.5q-4 4 -5 4z" />
<glyph unicode="b" horiz-adv-x="489" d="M-20 1028q4 27 26 35q4 2 9 2q15 0 18 -27q2 -92 5 -159.5t8 -131t11 -131t13 -159.5q4 -59 6 -115.5t4 -116.5q12 33 27.5 61.5t37.5 55.5q43 52 95 58q11 1 22 1q39 0 73 -18q44 -23 74.5 -66t36.5 -90q1 -8 0 -15q0 -39 -23 -75q-28 -43 -101 -65q-33 -10 -67 -12.5 t-69 -6.5q-16 -2 -22 5.5t-5 17.5t8 20t17 15q51 8 101.5 11t89.5 42q24 23 24 48q1 6 -1 14q-8 34 -35 60t-64 42q-24 10 -45 11q-11 0 -21 -3q-45 -12 -73.5 -52t-45 -91.5t-23.5 -104.5t-11 -92q-25 -25 -37 -26h-1q-11 0 -15 16v231.5t-11 231.5q-6 90 -12 158.5 t-11 131t-8 131t-5 158.5z" />
<glyph unicode="c" horiz-adv-x="446" d="M9 135q-4 22 -4 44q1 29 7 59q12 54 29 94q6 12 21.5 26.5t33.5 24.5t38 12h6q16 0 28 -10q14 -10 25.5 -21.5l23.5 -23.5q8 -10 8 -21.5t-6 -19.5t-16 -11t-23 5l-43 39q-31 0 -49 -21.5t-27.5 -50.5t-8.5 -60.5t11 -56.5q17 -43 57 -55q26 -8 55 -8q14 0 29 2 q44 6 87 25.5t71 44.5q4 16 18.5 23t29.5 -9l2 -4q3 -6 3 -13q0 -14 -14 -28q-27 -25 -59.5 -41.5t-65.5 -30.5q-31 -12 -60.5 -19t-63.5 -10h-7q-62 0 -94 32q-33 34 -42 83z" />
<glyph unicode="d" horiz-adv-x="501" d="M5 255q3 48 22.5 87t56.5 51q63 22 120 22q90 0 167 -55q16 -12 24 -26q0 2 -3 45t-7 107.5t-10 142.5t-12.5 150.5t-12.5 131t-12 86.5q4 27 26 35q4 2 9 2q15 0 18 -26l72 -887q-10 -29 -33 -31q-27 0 -35 19.5t-8 45t3 53.5t-1 44q-6 31 -31.5 52.5t-57.5 34.5 t-66.5 20.5t-61.5 7.5h-7q-43 0 -67 -24q-26 -25 -36 -63q-5 -21 -5 -44q-1 -18 3 -37q8 -43 27 -77t50 -50q15 -8 32 -8q18 0 38 8q29 12 52.5 33.5t47.5 37.5q29 10 32 -10t-13 -37q-29 -20 -54.5 -44.5t-58.5 -37.5q-27 -9 -50 -9q-22 -1 -41 7q-40 16 -66 54t-40 90 q-11 42 -12 81q0 9 1 18z" />
<glyph unicode="e" horiz-adv-x="473" d="M10 199q-1 12 -1 23q-1 41 9 83q12 53 39 95t74 51q7 1 14 1q25 0 47 -17q28 -22 48 -38q35 -33 44 -62.5t-1.5 -56t-34 -48t-54 -35t-63.5 -17.5t-59 4q16 -111 98 -130q13 -3 27 -3q75 0 180 84q14 10 23.5 8t13.5 -9q3 -5 3 -11q0 -3 -1 -7q-2 -12 -13 -22 q-53 -43 -107 -70.5t-104 -30.5h-10q-45 1 -84 25q-43 28 -73 99q-11 31 -15 84zM68 254q10 -14 34 -16h11q17 0 37 4q26 6 49.5 17t31.5 24q-4 27 -24.5 55.5t-44.5 42.5q-16 9 -31 9q-9 0 -17 -3q-24 -8 -34 -55q-8 -39 -12 -78z" />
<glyph unicode="f" horiz-adv-x="159" d="M-148 599q3 9 10 17.5t15 12.5q35 2 66.5 3t66.5 5q0 86 6.5 163t23.5 134t49 90q29 29 72 29h11q4 1 8 1q23 0 42 -18q24 -22 40.5 -59t26.5 -84t12 -92q-6 -20 -20.5 -20.5t-32.5 10.5q1 9 1 19q0 25 -4 52q-5 37 -15.5 69t-28 50t-41.5 12q-29 -2 -48.5 -28.5 t-31.5 -72.5t-18 -110q-4 -46 -4 -99q0 -20 1 -40q35 4 74 5t74 3q14 0 20 -8t4 -18.5t-10 -19.5t-20 -11q-35 -2 -67 -3t-66 -5q6 -145 23.5 -286.5t27.5 -254.5q6 -12 -3.5 -27.5t-25.5 -17.5q-16 2 -22 20q-12 123 -31 267.5t-25 292.5q-35 -4 -70.5 -5.5t-70.5 -3.5 q-14 2 -19 11q-2 4 -2 9q0 4 2 8zM102 57l2 -2v2h-2z" />
<glyph unicode="g" horiz-adv-x="385" d="M-303 -283q-1 4 -1 7q0 16 14 31q18 18 34 -3q33 -61 104 -92q70 -30 147 -30h5q80 1 154.5 31t113.5 87q31 45 42.5 95.5t11.5 102.5t-9.5 105t-19.5 105q-57 -59 -109 -70q-20 -5 -38 -5q-29 0 -54 13q-39 19 -60 61q-19 37 -19 79v12q3 49 36 97t105 77q35 13 74 13 h16q48 -3 73 -13t17 -31.5t-31 -26.5q-43 17 -78 17q-22 0 -40 -7q-48 -16 -76.5 -51.5t-35.5 -78.5q-3 -16 -3 -29q0 -22 8 -37q20 -37 50 -42t58.5 5.5t54 30.5t40.5 37l6 6q2 2 2 4q10 16 25.5 18.5t21.5 -18.5q4 -10 3 -18.5t-1 -18.5q14 -55 25.5 -115.5t12.5 -120.5 v-8q0 -57 -14 -111q-16 -58 -57 -110q-51 -66 -136 -103.5t-175 -40.5h-14q-82 0 -158 32q-82 35 -125 114z" />
<glyph unicode="h" horiz-adv-x="505" d="M-35 876q-1 23 -1 35.5t1 14.5q5 27 27 35q4 2 8 2q15 0 18 -27q4 -37 5 -92.5t5.5 -146.5t15.5 -226t36 -334q46 99 110 151q60 48 114 48h8q58 -4 101.5 -63.5t45.5 -180.5v-10q-6 -20 -24.5 -28.5t-28.5 16.5v12q-2 51 -16 100t-40 77q-22 23 -55 23h-13 q-42 -6 -100 -63q-37 -39 -52 -88t-36 -96q-8 -15 -22 -21q-4 -2 -8 -1q-10 0 -17 14q-14 82 -26.5 179t-21.5 195.5t-16.5 191.5t-11.5 165t-6 118z" />
<glyph unicode="i" horiz-adv-x="235" d="M47 23q2 84 11.5 165.5t11.5 163.5q4 27 26.5 35t26.5 -25q-2 -84 -11.5 -164.5t-11.5 -164.5q-6 -19 -26 -29q-5 -2 -8 -3q-13 0 -19 22zM115 613.5q0 9.5 5 18.5t15 15q9 23 29 26q2 0 4 1q16 0 20 -27q-4 -18 -14.5 -32.5t-30.5 -20.5h-7q-9 0 -14 4q-7 6 -7 15.5z " />
<glyph unicode="j" horiz-adv-x="178" d="M-412 -328q-2 5 -2 9q0 7 4 15q7 11 15 16t17 3t16 -16q6 -23 35.5 -47.5t70.5 -43t89 -25.5q18 -3 36 -3q29 0 56 8q44 11 77 43.5t45 96.5q18 94 23 172q5 56 5 112q0 21 -1 41q-2 76 -10.5 154t-20.5 170q0 10 7 19.5t15.5 14.5t16.5 2t12 -18q6 -45 13.5 -110.5 t12.5 -141t6 -155.5v-18q0 -70 -7 -136q-8 -74 -25.5 -137.5t-50.5 -104.5q-37 -47 -105 -61q-37 -8 -75 -8q-33 0 -65 6q-72 12 -131.5 49t-78.5 94zM-1 628q3 11 12 19t22 8h14q14 0 21 -8q4 -6 4 -14q0 -12 -10 -24q-9 -9 -21 -11h-23q-14 2 -18 11q-2 5 -2 11q0 4 1 8z " />
<glyph unicode="k" horiz-adv-x="389" d="M4 969q4 27 26 35q4 2 9 2q15 0 18 -27q4 -147 15.5 -294.5t19.5 -295.5v-10q29 47 74 93t90 95q2 2 10 11.5t19.5 20.5t19.5 21.5t10 14.5q20 27 39 15q10 -7 10 -18q0 -10 -8 -24q-41 -59 -93 -110.5t-99 -106.5q-41 -49 -41 -84q0 -13 5 -23q19 -40 89 -91 q23 -16 47.5 -31t44 -28t31.5 -24.5t12 -21.5q0 -16 -20 -18q-41 0 -76 23.5t-70 45.5q-59 37 -86 74q6 -59 10.5 -94t6.5 -54.5t1.5 -30.5t-0.5 -26q-6 -20 -24 -28q-4 -2 -9 -2q-13 0 -19 22q-18 94 -19.5 189.5t-7.5 189.5q-8 150 -19.5 296t-15.5 294z" />
<glyph unicode="l" horiz-adv-x="114" d="M-31 975q5 27 27 35q4 2 8 2q15 0 19 -27q4 -244 22 -483.5t23 -483.5q-6 -20 -26 -29q-5 -2 -8 -2q-13 0 -20 21q-4 244 -22.5 484.5t-22.5 482.5z" />
<glyph unicode="m" horiz-adv-x="778" d="M14 205v17q0 33 2 68q2 44 6.5 84.5t4.5 65.5q5 27 27 35q4 2 8 2q15 0 18 -26q0 -53 -1 -104.5t-3 -104.5q46 68 80 102q32 32 61 31h3q30 -2 58.5 -42t65.5 -116q16 129 90 168q27 14 59 14q55 0 125 -43q35 -23 56.5 -57.5t34 -74.5t18.5 -82q10 -71 10 -83 q-1 -22 -21 -32q-6 -3 -11 -3q-13 0 -19 21q-4 37 -10 73t-16.5 68.5t-29 62.5t-48.5 56q-41 36 -85 36q-11 0 -21 -2q-56 -11 -75 -81q-12 -47 -13 -81t-1 -77q-6 -16 -22.5 -28.5t-28.5 10.5q-10 31 -21.5 64.5t-27 65.5t-36 60.5t-46.5 46.5q-23 -8 -41.5 -28.5 t-33.5 -46t-29.5 -52t-26.5 -45.5q-10 -14 -24.5 -20t-24.5 12q-11 25 -11 66z" />
<glyph unicode="n" horiz-adv-x="471" d="M4 109v8q4 66 5 128t3 128q4 27 26 35q4 2 9 2q15 0 19 -27l-5 -125q49 70 114 94q34 13 65 14q29 0 56 -12q56 -22 93 -90q30 -56 30 -145q0 -19 -1 -39v-2h-2q-6 -18 -24 -26q-4 -2 -9 -3q-12 0 -18 21v24v9q0 91 -38 143q-41 54 -93 61q-6 1 -12 1q-46 0 -91 -40 q-51 -45 -74 -149q0 -4 -2 -4v-13h-6q-10 -12 -24.5 -14t-20.5 21z" />
<glyph unicode="o" horiz-adv-x="387" d="M22 267q16 46 42 81t57 35q11 3 26 3q9 0 17 -1q26 -2 54 -8t52.5 -16.5t36.5 -24.5q39 -51 39 -102q0 -8 -1 -16q-7 -58 -45 -99t-98 -57q-21 -5 -41 -5q-39 0 -77 19q-16 8 -31.5 14t-27.5 19q-20 20 -20 64q1 46 17 94zM55 181.5q0 -17.5 11 -25.5q36 -31 72 -37 q15 -2 28 -3q21 0 39 6q31 9 52.5 31.5t27.5 50.5q2 8 2 16q-1 18 -11 38q-14 28 -53 51q-28 16 -52 16q-17 1 -32 -7q-37 -18 -59 -50q-4 -4 -9 -19.5t-10.5 -32.5t-5.5 -34.5z" />
<glyph unicode="p" horiz-adv-x="479" d="M6 346q4 27 26.5 35t26.5 -25q2 -39 8.5 -75.5t14.5 -75.5q14 92 53 146.5t87 68.5q16 5 32 5q33 0 68 -19q53 -29 94 -105q26 -47 26 -96q0 -13 -2 -25q-8 -63 -44 -106t-92 -58q-16 -4 -32 -4q-41 0 -86 27q-10 20 2.5 38.5t34.5 8.5q29 -18 51.5 -22.5t55.5 12.5 q37 18 50 50q10 24 10 51q0 8 -1 17q-4 35 -21.5 70t-43 61.5t-55 40t-58.5 5.5q-23 -6 -36 -30t-22.5 -53.5t-14.5 -58t-7 -45.5q-12 -76 -14 -152q-1 -39 -1 -76.5t1 -74.5q2 -74 5 -142.5t3 -127.5q-6 -16 -23 -29q-5 -4 -11 -4q-9 0 -17 14q-4 14 -5 82t-4.5 158 t-10.5 187.5t-21 170.5q-8 41 -16.5 78t-10.5 78z" />
<glyph unicode="q" horiz-adv-x="479" d="M7 170q-1 12 -1 23q0 29 8 58q13 40 42.5 74.5t80.5 51.5q63 23 129.5 33t132.5 16q14 0 20.5 -8t4.5 -18.5t-10 -19.5t-21 -11q-35 -4 -71.5 -5.5t-73.5 -7.5q-25 -4 -54.5 -13t-56 -22.5t-48 -34t-32.5 -48.5q-8 -25 -2 -49.5t23.5 -42t41 -24.5t48.5 3q45 18 74.5 55 t58.5 72q2 2 -2 -6l35 53q14 18 29.5 17t19.5 -25q0 -74 -7 -147.5t-10 -148.5q-2 -37 -2 -74t2 -73q3 -73 25 -143q10 -33 40 -51.5t62.5 -20.5t61.5 13.5t39 50.5q10 23 29.5 26t23.5 -26q-12 -41 -46 -73t-76 -46q-27 -9 -53 -9q-15 0 -30 3q-41 8 -65 45q-41 61 -53 141 q-12 74 -12 150v12q1 82 9.5 159t8.5 130q-31 -39 -69 -79t-85 -60q-32 -12 -58 -12q-14 0 -27 4q-36 10 -57.5 38.5t-26.5 69.5z" />
<glyph unicode="r" horiz-adv-x="397" d="M10 399q4 27 26.5 35t26.5 -24q2 -47 10.5 -93.5t18.5 -93.5q6 33 30.5 76t59.5 81t76 63.5t80 26.5q12 -4 16 -19v-5q2 -20 -14 -32.5t-29 -1.5q-111 -56 -149 -146q-31 -75 -30 -167q0 -20 1 -40q-5 -17 -21 -29q-6 -4 -11 -4q-10 0 -19 15q-20 82 -43 165.5t-29 192.5 z" />
<glyph unicode="s" horiz-adv-x="503" d="M12 279q-5 9 -5 18q0 12 9 25q4 4 16.5 22t24.5 25q29 16 89 35q62 20 126 26q22 2 41 2q41 0 77 -8q54 -12 73 -57q2 -5 2 -11t-2 -12q-4 -12 -12.5 -19.5t-17.5 -6.5t-17 14q-10 23 -37 33t-62.5 10t-76.5 -7.5t-77 -17.5t-62.5 -22.5t-34.5 -22.5q25 -35 70.5 -56.5 t97 -38.5t103.5 -32.5t89 -40.5q6 -4 7 -9t3 -13q-6 -55 -45 -88t-91 -43q-21 -4 -43 -3q-31 -1 -63 7q-54 14 -85 51q-10 20 2 38.5t34 8.5q20 -20 58.5 -32.5t76.5 -13.5h5q34 0 62 11q30 12 34 43q-43 29 -94 44.5t-102.5 30.5t-96.5 38.5t-76 71.5z" />
<glyph unicode="t" horiz-adv-x="139" d="M-130 513q3 9 10 17.5t16 12.5q31 0 59.5 2t56.5 6q-4 59 -5 125.5t-3 144.5q4 27 26 35q4 2 9 2q15 0 18 -27q2 -78 3 -145.5t6 -128.5q53 10 105 21.5t105 21.5q14 0 20 -7q5 -5 5 -12q0 -10 -8 -23q-6 -9 -14 -15q-53 -10 -104.5 -21.5t-104.5 -19.5q6 -113 11 -224.5 t9 -257.5q-6 -20 -26 -29q-5 -2 -8 -2q-13 0 -19 21q-4 145 -9 258t-12 226q-33 -4 -63.5 -6.5t-63.5 -2.5q-14 3 -18 11q-2 5 -2 9t1 8z" />
<glyph unicode="u" horiz-adv-x="497" d="M12 358q0 10 7.5 19.5t15.5 14.5q5 3 10 3l6 -1q8 -3 12 -17q4 -33 6.5 -59.5t6.5 -51t13 -48t26 -52.5q27 -44 61 -62q28 -15 58 -15q6 0 12 1q35 4 62.5 33t39.5 78q10 41 12 78.5t5 76.5q2 18 17 31.5t32 -4.5q12 -23 20 -77t13.5 -110.5t8.5 -101.5q3 -47 3 -51 q-1 -22 -21 -32q-6 -3 -11 -3q-13 0 -19 21q-8 37 -9.5 75.5t-3.5 79.5q-10 -23 -18 -46t-25 -44q-61 -78 -122.5 -78t-110.5 48t-79 128q-28 75 -28 155v11z" />
<glyph unicode="v" horiz-adv-x="446" d="M10 338q2 12 10.5 19.5t17.5 9.5t19 -11q29 -35 48.5 -69.5t36 -70.5t31.5 -73t36 -75q25 43 46 104t39.5 120.5t36 105.5t36.5 57q10 8 19 9h2q8 0 18 -9q2 -6 -7.5 -36t-25 -73t-33.5 -94t-36.5 -98.5t-34 -84t-23.5 -53.5q-6 -12 -16.5 -11t-20.5 -9q-1 -1 -2 -1 q-5 1 -17 17q-14 22 -34.5 55t-42 75t-42 79t-36 63.5t-21.5 30.5q-4 8 -4 16v7z" />
<glyph unicode="w" horiz-adv-x="620" d="M12 367q-2 5 -2 9q0 7 4 14q6 11 14.5 16.5t17.5 3.5t15 -17q23 -78 53.5 -156.5t84.5 -140.5h6q12 23 21.5 56.5t20.5 68.5t25.5 63.5t38.5 39.5q14 6 25 0q27 -25 46 -54.5t38.5 -60.5t41 -59.5t50.5 -49.5q7 48 7 96q0 24 -2 48q-5 72 -7 143q-8 6 -8 20.5t8 24.5 q4 4 6 4q10 9 21 9q6 0 12 -3q2 0 4 -2q6 -6 7 -11t3 -13q0 -41 5 -87q6 -47 8 -93q1 -17 1 -33q1 -30 -3 -58q-4 -45 -25 -84q-10 -18 -29 -20h-5q-31 -1 -57 23q-28 26 -54.5 61t-48 73t-40.5 60q-18 -51 -32.5 -101.5t-42.5 -97.5q-6 -10 -12.5 -15t-16.5 -7 q-10 2 -20.5 1t-20.5 3q-27 10 -52.5 53t-47 95.5t-37 102.5t-21.5 75z" />
<glyph unicode="x" horiz-adv-x="505" d="M20 383q-2 5 -2 9q0 6 4 14q6 12 15 17q6 4 12 4q2 0 5 -1q9 -2 16 -16q16 -45 56 -96.5t89 -100.5q47 53 93 104.5t95 100.5q12 9 22 9q8 0 14.5 -7t5.5 -15q0 -10 -7 -22q-51 -49 -97 -100.5t-93 -102.5q35 -33 66.5 -60.5t56.5 -47.5q8 -10 8 -21.5t-6 -19.5 t-16.5 -11.5t-22.5 5.5q-29 23 -60.5 51t-66.5 59l-133 -135l-4 -6l-2 2l-5 -6q-10 -6 -17 -6h-3q-8 2 -11 10t-2 18.5t7 18.5l14 14l4 4l58.5 58.5t58.5 60.5q-49 51 -91.5 106.5t-60.5 108.5z" />
<glyph unicode="y" horiz-adv-x="489" d="M4 295q2 57 33 106q8 10 17 15q5 2 11 2q3 0 7 -1q8 -3 11 -11.5t-1 -22.5q-23 -35 -25 -81v-10q0 -40 15 -77q16 -41 49 -68.5t82 -27.5q47 2 77.5 26.5t49 60.5t27 73.5t10.5 64.5v14q0 6 2 11q0 2 1 3t1 3q4 4 4 6l6 6l12 6q14 4 21 -8q4 -4 4 -10q0 -2 1 -2t1 -2v-2 q0 -72 19.5 -160t34.5 -181.5t18 -189.5v-12q0 -90 -35 -174q-14 -35 -64.5 -57.5t-106.5 -27.5q-15 -1 -30 -1q-40 0 -77 10q-50 14 -64 51q-4 12 2 23.5t14 16.5t17.5 3t15.5 -16q39 -12 82 -20q22 -3 42 -3t39 3q38 8 65.5 32.5t37.5 73.5q9 50 9 104v10q-1 60 -10 120.5 t-21.5 120t-24.5 112.5q-27 -63 -74 -107q-41 -40 -100 -40q-8 0 -16 1q-61 6 -104.5 41t-64.5 86q-20 46 -20 97v10z" />
<glyph unicode="z" horiz-adv-x="610" d="M25 428q10 21 32 21q106 -35 215 -63t211 -75q23 -23 -6 -47q-80 -70 -164 -131t-170 -127q90 10 178.5 28.5t176.5 33.5q8 6 20 6q6 0 12.5 -1t10.5 -1q18 -8 18 -21q1 -3 -1 -7q-6 -18 -23 -30q-16 -2 -52.5 -9t-80.5 -16t-93 -18.5t-93 -14.5q-37 -4 -68 -4h-12 q-36 1 -54 11q-14 10 -13 22.5t11 24.5q35 39 77 73t86 64.5t88 61.5t83 65q-94 31 -188.5 58.5t-190.5 58.5q-13 11 -13 24q0 6 3 13z" />
<glyph unicode="{" horiz-adv-x="456" d="M-5 411.5q1 12.5 11 24.5q8 8 23.5 19.5t30 24t26.5 25.5t16 25q14 43 7 98.5t-16 113t-12 111.5t19.5 94t78.5 62.5t167 14.5q14 0 20.5 -7t4.5 -16.5t-8.5 -18.5t-14.5 -15q-92 16 -137 -2.5t-61.5 -57.5t-12.5 -93t13.5 -108.5t14.5 -102.5t-9 -77q-10 -20 -30 -44.5 t-44 -47.5q23 -4 46.5 -9t39.5 -17q39 -27 52 -67t16.5 -83t4.5 -86t15 -72.5t50 -42t108 1.5q20 12 26 1t6 -27.5t-4 -27.5t-6 -1q-90 -14 -140 -5t-75.5 34.5t-33 61.5t-8.5 76t-2 79t-16.5 70.5t-50 50t-102.5 18.5q-14 10 -13 22.5z" />
<glyph unicode="|" horiz-adv-x="139" d="M12 1090q4 27 26.5 35t27.5 -25q2 -121 4 -291t3 -349t3 -349t4 -291q-6 -20 -25.5 -29.5t-27.5 19.5q-2 82 -3 185t-2.5 219t-2.5 236.5t-2 236.5t-2 219.5t-3 183.5z" />
<glyph unicode="}" horiz-adv-x="464" d="M0 1000.5q-2 9.5 3.5 16.5t21.5 7q109 8 170 -13.5t88.5 -61.5t31.5 -93t1 -110.5t-6 -111.5t12 -97q4 -12 16 -21.5t27.5 -18t31 -16.5t25.5 -16q10 -12 9 -35.5t-15 -34.5q-68 0 -101.5 -19.5t-47 -51t-11.5 -71.5l4 -80t-2 -77t-27.5 -61.5t-74 -34.5t-138.5 4 q-2 -10 -6 1t-4 27.5t6 28t27 -1.5q72 -14 105.5 -0.5t45 44t8.5 72.5t-3 87t10 85t49 67q16 12 39.5 17t46.5 9q-25 23 -47.5 30t-32.5 28q-14 29 -12 80t5 108t2 113.5t-23.5 99.5t-70.5 63.5t-140 4.5q-8 6 -14.5 15t-8.5 18.5z" />
<glyph unicode="~" horiz-adv-x="430" d="M6 258q-4 10 2 25q20 55 45 76.5t50.5 21.5t52 -16.5t48 -35t39 -33.5t27.5 -15q18 0 29.5 13t22 29.5t20.5 33t23 24.5q29 10 39 -10.5t-5 -36.5q-27 -41 -57.5 -77t-58.5 -36q-33 0 -65 29t-60.5 50.5t-55.5 19t-47 -63.5q-8 -12 -18 -15t-18.5 2t-12.5 15z" />
<glyph unicode="&#xa1;" horiz-adv-x="153" d="M8 57q2 121 6 214.5t9.5 181.5t9.5 182t6 215q8 29 27.5 19.5t25.5 -29.5q-2 -121 -6 -215.5t-9 -181.5t-9.5 -181t-6.5 -215q-4 -33 -26.5 -25t-26.5 35zM34 989q5 23 34 21q4 -4 12 -4q10 -6 16 -13.5t10 -21.5q12 -35 -9 -44t-44 13q-2 0 -2 1t-2 1l-4 4 q-16 20 -11 43z" />
<glyph unicode="&#xa2;" horiz-adv-x="468" d="M4 443.5q6 56.5 47 111.5t101 84q-4 47 -9.5 87t-13.5 67q-4 12 2 23t14.5 16.5t17.5 3.5t15 -17q10 -29 16.5 -70.5t10.5 -91.5q59 14 110 -6q12 -4 16.5 -15t2.5 -21.5t-8.5 -15.5t-18.5 3q-55 2 -94 -6q6 -63 11 -128t14 -122q39 10 74.5 27.5t62.5 40.5q4 16 27.5 20 t37.5 -12l2 -4q10 -20 -10 -41q-33 -29 -83 -57.5t-103 -38.5q6 -33 12 -57.5t16 -41.5q14 0 19 -24q0 -6 -2 -8q-4 -16 -17.5 -26.5t-29.5 1.5q-16 16 -28.5 56t-22.5 93q-4 0 -6.5 1t-4.5 1q-104 14 -144 62.5t-34 105zM72 444q2 -25 10 -41q16 -35 42 -49t58 -14 q-8 57 -13 118.5t-11 121.5q-35 -16 -53.5 -39t-26.5 -47.5t-6 -49.5z" />
<glyph unicode="&#xa3;" horiz-adv-x="591" d="M-1 513q-1 11 4 20.5t15.5 13.5t22.5 0t33.5 -4t48.5 4q2 143 72.5 234t230.5 108q14 0 20.5 -8.5t4.5 -18.5t-10.5 -19t-20.5 -12q-135 -12 -189.5 -84.5t-56.5 -191.5q8 0 35 1t56.5 3t56 2t36.5 -2q6 -20 6.5 -27.5t-24.5 -17.5q-6 -2 -23.5 -4t-41 -5t-50 -6 t-49.5 -7q4 -49 14.5 -84t16.5 -63t2 -53.5t-29 -60.5q31 6 71 -14t84 -38.5t90 -22.5t91 34q6 12 16.5 15.5t19.5 -1.5t14 -16.5t-1 -27.5q-68 -61 -118 -69.5t-91 7t-75.5 40t-69.5 30.5q-29 6 -59.5 2t-59.5 -14q-14 -2 -20 4t-7.5 15t4 18.5t13.5 15.5q49 31 63.5 59.5 t11.5 59t-15.5 66.5t-16.5 83q0 2 -1 4t-1 4q-33 -4 -63 -1.5t-50 10.5q-10 8 -11 19z" />
<glyph unicode="&#xa4;" horiz-adv-x="569" d="M1 690q11 23 34 23q10 -10 52 -46t81 -75q25 25 53.5 43t57 25.5t54 1t44.5 -28.5q23 29 47.5 54.5t48.5 49.5q18 12 33 6q2 0 2 -2q10 -14 6 -28.5t-16 -20.5q-27 -27 -42.5 -43t-35.5 -49q31 -29 49 -72t-10 -102q-12 -23 -39 -47q2 0 19.5 -16.5t38 -38t40 -41 t23.5 -27.5q16 -16 3.5 -35.5t-34.5 -17.5q-6 6 -25.5 26.5t-42 44t-44 43t-29.5 21.5l-7 4q-41 -16 -85 -22.5t-78 6.5q2 -2 -9.5 -15.5t-25.5 -32t-29.5 -40t-23.5 -37.5q-16 -23 -35 -19t-13 35q0 6 14.5 29.5t32 47t32 42t12.5 16.5q-35 35 -41.5 88.5t16.5 102.5 q-41 33 -73.5 68.5t-45.5 39.5q-20 16 -9 39zM159 479q-1 -28 19 -57q18 -25 52 -35t70 -8t68 17t44 44q8 29 4 49.5t-17.5 39t-34 35t-42.5 36.5q-35 4 -71 -9t-61 -40q-4 -12 -14 -21q-16 -23 -17 -51z" />
<glyph unicode="&#xa5;" horiz-adv-x="518" d="M-2 797.5q4 15.5 13 28t20.5 17.5t21.5 -7q16 -25 39 -58t49.5 -66.5t54 -65.5t56.5 -54q20 37 49 81t54.5 84t43 69.5t15.5 35.5q6 10 17 16.5t22.5 6.5t20.5 -6.5t11 -20.5q0 -10 -28.5 -51t-64.5 -91t-69.5 -100.5t-43.5 -76.5v-27q16 0 31.5 1t31.5 3l90 10 q6 2 14.5 4t10.5 2q20 4 24 -14t-12 -35q4 4 -9.5 -3t-25.5 -11q-25 -4 -48.5 -6t-49.5 -4l-55 -4v-52q35 4 66.5 6.5t66.5 2.5q4 0 19.5 2t17.5 4q16 6 23 1t8 -14.5t-5 -21.5t-16 -18q-37 -18 -85 -17.5t-93 -1.5q4 -59 7 -106t7 -47v-3q-6 -20 -21.5 -25t-31.5 17 q-6 8 -10.5 54.5t-8.5 103.5q-37 -8 -74.5 -19.5t-76.5 -11.5q-18 -10 -28.5 6.5t5.5 36.5q16 16 39 15q63 18 133 30q0 14 -1 27.5t-1 28.5q-41 -2 -83 -2h-83q-14 2 -18 11t-1 19.5t12 18.5t22 8h74.5t74.5 2q-4 33 -6 35q0 6 -33 41t-71.5 75.5t-72.5 74.5l-36 36 q-6 10 -2 25.5z" />
<glyph unicode="&#xa6;" horiz-adv-x="114" d="M12 -180q2 125 4 261t4 318h54q-2 -184 -4 -324.5t-4 -264.5q-8 -29 -28 -20t-26 30zM20 555l7 545q4 33 26.5 24.5t26.5 -34.5l-6 -535h-54z" />
<glyph unicode="&#xa7;" horiz-adv-x="749" d="M8 661.5q-8 53.5 8 151.5q29 100 106 146.5t172 55.5t193.5 -9.5t169.5 -47.5q16 -16 4 -35.5t-34 -17.5q-37 14 -89.5 27.5t-109.5 21t-114.5 5t-107.5 -17.5t-87 -48t-51 -86q-18 -74 -3 -120t52 -73.5t91 -41t113.5 -21.5t118 -15.5t107.5 -23.5q84 -29 123 -70 t44 -88t-19.5 -96t-67.5 -94q80 -45 90 -108.5t-25 -127t-103.5 -120t-147.5 -87t-154.5 -28.5t-126.5 53q-18 20 -48 55t-46.5 72t-12.5 68.5t53 44.5q12 -10 15.5 -22.5t4.5 -27t2 -32t9 -37.5q14 -35 48 -62.5t71 -37.5q45 -12 99.5 -3t106.5 32.5t96 58t69 75.5 q35 59 30.5 99.5t-35 65t-79.5 38.5t-104.5 23.5t-111 15.5t-96.5 18q-72 20 -118.5 41t-71.5 53.5t-29 83t11 130.5q12 41 34 77q-41 33 -49 86.5zM71 372q15 -46 52 -74t91 -41t113.5 -21.5t118 -15.5t107.5 -23l20 -9q27 25 48 58q35 59 30.5 99t-35 64.5t-80 39 t-104.5 23.5t-110.5 15.5t-96.5 18.5q-39 10 -69.5 20.5t-55.5 22.5q-16 -23 -26 -57q-18 -74 -3 -120z" />
<glyph unicode="&#xa8;" horiz-adv-x="348" d="M2 1123.5q-2 9.5 0 21.5t10 22l4 4q2 0 2 1.5t2 1.5q23 23 44.5 13.5t9.5 -44.5q-4 -14 -10.5 -21.5t-16.5 -13.5q-8 0 -12 -4q-14 -2 -22.5 4t-10.5 15.5zM217 1123.5q-2 9.5 0 21.5t10 22l4 4q2 0 2 1.5t3 1.5q23 23 44 13.5t9 -44.5q-4 -14 -10.5 -21.5t-16.5 -13.5 q-8 0 -12 -4q-14 -2 -22.5 4t-10.5 15.5z" />
<glyph unicode="&#xad;" horiz-adv-x="315" d="M15 301q3 10 12.5 18.5t21.5 8.5q51 0 101.5 -1t99.5 -1q4 0 8 1t8 1q14 0 20.5 -7.5t4.5 -16.5t-8.5 -18.5t-14.5 -15.5q-59 -8 -116.5 -4t-116.5 4q-14 2 -18.5 11.5t-1.5 19.5z" />
<glyph unicode="&#xb0;" horiz-adv-x="376" d="M3.5 857q0.5 46 16 92t42 81t57.5 35q16 4 42.5 2t54.5 -8t52.5 -16.5t36.5 -24.5q45 -59 38 -117.5t-45 -99.5t-97.5 -56.5t-118.5 13.5q-16 8 -31.5 14t-27.5 19q-20 20 -19.5 66zM53 863.5q0 -17.5 10 -25.5q35 -31 72 -37t67.5 3t52 31.5t28 50t-8 55t-53.5 50.5 q-47 27 -84 8.5t-59 -49.5q-4 -4 -9.5 -19.5t-10.5 -32.5t-5 -34.5z" />
<glyph unicode="&#xb4;" horiz-adv-x="299" d="M3 1083.5q-7 24.5 20 28.5q-6 0 -2 4t13 8t20.5 9.5t17.5 9.5q41 23 82 41t75 49q23 10 35 -8.5t2 -38.5q-12 -10 -45 -33t-70.5 -44.5t-71.5 -37.5t-46 -16q-23 4 -30 28.5z" />
<glyph unicode="&#xb8;" horiz-adv-x="325" d="M12 -205q-2 10 3 18.5t22 8.5q23 -2 51.5 -8.5t57 -11.5t55 -4t49.5 16q-14 29 -50 39t-63 14q-16 2 -25.5 13t-5.5 26q4 25 12.5 48t12.5 46h55q-4 -23 -9 -42t-9 -40q33 -6 65 -27q14 -8 33 -25.5t29 -39t7 -40.5t-30 -32q-57 -20 -115.5 -7t-113.5 17 q-12 2 -20.5 11.5t-10.5 19.5z" />
<glyph unicode="&#xbf;" horiz-adv-x="542" d="M12 477q25 129 107 190.5t235 37.5q-4 14 -10 37.5t-13 46t-12.5 43t-5.5 32.5q6 20 26 29.5t28 -19.5q0 -2 10 -31.5t19.5 -67.5t15.5 -73.5t0 -50.5l-23 -10q-66 31 -128 23.5t-109.5 -45t-75 -103t-21.5 -154.5q6 -109 41 -179t88.5 -101t123 -18.5t145.5 73.5 q12 18 35.5 13t21.5 -33q-115 -104 -216 -112.5t-173 52t-103.5 173t-5.5 247.5zM297 1026q4 14 10 21.5t17 13.5q8 0 12 4q14 2 22.5 -4t10.5 -15.5t0 -21.5t-11 -23l-4 -4q-2 0 -2 -1t-2 -1q-23 -23 -44 -13.5t-9 44.5z" />
<glyph unicode="&#xc0;" d="M0 98.5q-2 12.5 2 22.5q31 66 75 176.5t97 236t114.5 255t123.5 231.5q14 10 24 4t19 -18q53 -98 98 -223.5t82 -252.5q10 0 20.5 1t20.5 1q14 0 20 -8t4 -18t-10 -19.5t-20 -11.5h-21q20 -72 38 -138.5t32 -122.5t25.5 -98t21.5 -67q-4 -33 -30.5 -36t-41.5 24 q-23 109 -47 216t-55 216q-90 -10 -186.5 -27.5t-219.5 -23.5q-37 -84 -72.5 -168t-68.5 -170q-10 -12 -19.5 -11t-16.5 9t-9 20.5zM213 477q92 6 182 21.5t183 25.5q-31 106 -67 211t-77 207q-55 -117 -111.5 -232.5t-109.5 -232.5zM313 1186q-10 20 2.5 38.5t34.5 8.5 q35 -31 76 -49.5t82 -40.5q6 -4 17.5 -9.5t20.5 -9.5t13 -8t-2 -4q27 -4 19.5 -28.5t-29.5 -28.5q-12 0 -46 16t-72 37.5t-71 44.5t-45 33z" />
<glyph unicode="&#xc1;" d="M0 98.5q2 -12.5 9 -20.5t16.5 -9t19.5 11q33 86 69 170l72 168q123 6 219.5 23.5t186.5 27.5q31 -109 55.5 -216.5t46.5 -215.5q14 -27 41 -24t31 36q-10 25 -21.5 67t-25.5 98t-31.5 122.5t-38.5 138.5h21q12 2 20 11.5t10 19.5t-4 18t-20 8q-10 0 -20.5 -1t-20.5 -1 q-37 127 -82 252t-98 224q-8 12 -18.5 18t-24.5 -4q-61 -102 -123 -231.5t-115 -255t-97 -236t-75 -176.5q-4 -10 -2 -22.5zM213 477q53 117 109.5 232.5t111.5 232.5q41 -102 77 -206.5t67 -211.5q-92 -10 -182.5 -25.5t-182.5 -21.5zM314 1083.5q-7 24.5 20 28.5 q-6 0 -2 4t13 8t20.5 9.5t17.5 9.5q41 23 82 41t76 49q23 10 35 -8.5t2 -38.5q-12 -10 -45 -33t-71 -44.5t-72 -37.5t-46 -16q-23 4 -30 28.5z" />
<glyph unicode="&#xc2;" d="M0 98.5q-2 12.5 2 22.5q31 66 75 176.5t97 236t114.5 255t123.5 231.5q14 10 24 4t19 -18q53 -98 98 -223.5t82 -252.5q10 0 20.5 1t20.5 1q14 0 20 -8t4 -18t-10 -19.5t-20 -11.5h-21q20 -72 38 -138.5t32 -122.5t25.5 -98t21.5 -67q-4 -33 -30.5 -36t-41.5 24 q-23 109 -47 216t-55 216q-90 -10 -186.5 -27.5t-219.5 -23.5q-37 -84 -72.5 -168t-68.5 -170q-10 -12 -19.5 -11t-16.5 9t-9 20.5zM213 477q92 6 182 21.5t183 25.5q-31 106 -67 211t-77 207q-55 -117 -111.5 -232.5t-109.5 -232.5zM281 1083q-2 10 39 61.5t98 125.5 q25 12 57 -17q53 -59 82 -111t35 -63q10 -14 8 -24.5t-10 -14.5t-19.5 -2t-19.5 15q-6 8 -23.5 31.5t-36 50t-35 49t-18.5 28.5q-4 -6 -38.5 -45t-71.5 -110q-27 -4 -38 0t-9 26z" />
<glyph unicode="&#xc3;" d="M0 98.5q-2 12.5 2 22.5q31 66 75 176.5t97 236t114.5 255t123.5 231.5q14 10 24 4t19 -18q53 -98 98 -223.5t82 -252.5q10 0 20.5 1t20.5 1q14 0 20 -8t4 -18t-10 -19.5t-20 -11.5h-21q20 -72 38 -138.5t32 -122.5t25.5 -98t21.5 -67q-4 -33 -30.5 -36t-41.5 24 q-23 109 -47 216t-55 216q-90 -10 -186.5 -27.5t-219.5 -23.5q-37 -84 -72.5 -168t-68.5 -170q-10 -12 -19.5 -11t-16.5 9t-9 20.5zM213 477q92 6 182 21.5t183 25.5q-31 106 -67 211t-77 207q-55 -117 -111.5 -232.5t-109.5 -232.5zM248 1095.5q-4 10.5 2 24.5 q20 55 44.5 77t50.5 22t52.5 -16.5t48 -35t39 -34t27.5 -15.5q18 0 29.5 13.5t21.5 30t20.5 32.5t22.5 25q29 10 39 -10.5t-4 -37.5q-27 -41 -57.5 -76.5t-59.5 -35.5q-33 0 -64.5 28.5t-60 50t-55.5 19.5t-47 -63q-8 -12 -18.5 -15.5t-18.5 1.5t-12 15.5z" />
<glyph unicode="&#xc4;" d="M0 98.5q-2 12.5 2 22.5q31 66 75 176.5t97 236t114.5 255t123.5 231.5q14 10 24 4t19 -18q53 -98 98 -223.5t82 -252.5q10 0 20.5 1t20.5 1q14 0 20 -8t4 -18t-10 -19.5t-20 -11.5h-21q20 -72 38 -138.5t32 -122.5t25.5 -98t21.5 -67q-4 -33 -30.5 -36t-41.5 24 q-23 109 -47 216t-55 216q-90 -10 -186.5 -27.5t-219.5 -23.5q-37 -84 -72.5 -168t-68.5 -170q-10 -12 -19.5 -11t-16.5 9t-9 20.5zM213 477q92 6 182 21.5t183 25.5q-31 106 -67 211t-77 207q-55 -117 -111.5 -232.5t-109.5 -232.5zM295 1123.5q-2 9.5 0 21.5t10 22l4 4 q2 0 2 1.5t2 1.5q23 23 44.5 13.5t9.5 -44.5q-4 -14 -10.5 -21.5t-16.5 -13.5q-8 0 -12 -4q-14 -2 -22.5 4t-10.5 15.5zM510 1123.5q-2 9.5 0 21.5t10 22l4 4q2 0 2 1.5t2 1.5q23 23 44.5 13.5t9.5 -44.5q-4 -14 -10.5 -21.5t-16.5 -13.5q-8 0 -12 -4q-14 -2 -22.5 4 t-10.5 15.5z" />
<glyph unicode="&#xc5;" d="M0 98.5q-2 12.5 2 22.5q31 66 75 176.5t97 236t114.5 255t123.5 231.5q14 10 24 4t19 -18q53 -98 98 -223.5t82 -252.5q10 0 20.5 1t20.5 1q14 0 20 -8t4 -18t-10 -19.5t-20 -11.5h-21q20 -72 38 -138.5t32 -122.5t25.5 -98t21.5 -67q-4 -33 -30.5 -36t-41.5 24 q-23 109 -47 216t-55 216q-90 -10 -186.5 -27.5t-219.5 -23.5q-37 -84 -72.5 -168t-68.5 -170q-10 -12 -19.5 -11t-16.5 9t-9 20.5zM213 477q92 6 182 21.5t183 25.5q-31 106 -67 211t-77 207q-55 -117 -111.5 -232.5t-109.5 -232.5zM330 1143q0 31 10 62.5t28 55t38 23.5 q23 6 65.5 -2t58.5 -29q31 -41 27 -80.5t-30.5 -67.5t-66.5 -38t-79 8q-10 4 -20.5 8t-18.5 15q-12 14 -12 45zM383 1175.5q0 -12.5 2 -23.5t8 -17q37 -31 61.5 -28t37 23.5t12 47.5t-14.5 41q-27 27 -56.5 20.5t-43.5 -29.5q-2 -4 -4 -13t-2 -21.5z" />
<glyph unicode="&#xc6;" horiz-adv-x="999" d="M0 98.5q-2 12.5 2 22.5q31 66 75 176.5t97 236t114.5 255t123.5 231.5q6 2 60 2t128 -1t154 -1h139q14 0 20.5 -8t4 -18.5t-10.5 -19.5t-20 -11q-106 -2 -215 3t-217 1q2 -92 7 -198.5t9 -199.5q84 2 163 12.5t161 12.5q14 0 20 -8t4 -18.5t-10 -19.5t-21 -11 q-78 -2 -156.5 -13.5t-154.5 -15.5q-2 -6 -2 -38t1 -78t3 -98t4 -96t4 -76t5 -36q119 6 233.5 24.5t232.5 22.5q14 0 20.5 -8t4.5 -18.5t-10 -19.5t-21 -11q-127 -4 -249.5 -24.5t-251.5 -24.5q-20 2 -21.5 16t8.5 27v2q-2 111 -6 221t-10 221q-29 -4 -47.5 -5t-39 -2 t-48 -1t-72.5 -2q-18 -41 -40.5 -96.5t-46.5 -113.5t-45.5 -114.5t-37.5 -99.5q-10 -12 -19.5 -11t-16.5 9t-9 20.5zM242 563q35 2 56 2h39.5h37t45.5 4q-4 80 -8 161t-6 161q-25 -49 -57 -104.5t-58.5 -104.5t-40.5 -83t-8 -36z" />
<glyph unicode="&#xc7;" horiz-adv-x="641" d="M7 299q3 104 34 221t77 215.5t100 165t106 72.5q70 8 105.5 -11.5t53 -53.5t21.5 -79t10 -90q2 -25 -20.5 -36t-30.5 18q-4 41 -6 80t-15 76q-12 33 -42.5 47t-63.5 -4q-47 -27 -91 -85.5t-79 -132t-60.5 -158.5t-34 -165t1 -150.5t42.5 -115.5q35 -49 96 -55.5t124.5 13 t118 57.5t76.5 81q8 14 14.5 32.5t10.5 34.5q10 23 29.5 26t23.5 -26q-33 -121 -129 -196.5t-215 -79.5l-10 -45q33 -6 65 -27q14 -8 33 -25.5t29 -39t7 -41t-30 -31.5q-57 -20 -115.5 -7t-113.5 17q-12 2 -20.5 11.5t-10.5 19.5t3 18.5t22 8.5q23 -2 51.5 -8.5t57 -11.5 t55 -4t49.5 15q-14 29 -50 39.5t-63 14.5q-16 2 -25.5 13t-4.5 26q2 16 6 30.5t8 26.5q-16 2 -30.5 6t-31.5 8q-78 23 -109.5 102t-28.5 183z" />
<glyph unicode="&#xc8;" horiz-adv-x="616" d="M-2 1001q2 12 9 21.5t16.5 12.5t17.5 -2t10 -19q111 2 218.5 12t215.5 12q14 0 20.5 -8t4.5 -18.5t-10 -19.5t-21 -11q-106 -2 -212.5 -11t-215.5 -14q2 -184 12 -368q84 2 163 12t161 12q14 0 20.5 -8t4.5 -18.5t-10.5 -19.5t-20.5 -11q-78 -2 -157 -11t-156 -14 q4 -109 9 -214t7 -212q119 6 233.5 24.5t233.5 23.5q14 0 20.5 -8.5t4 -18.5t-10.5 -19.5t-20 -11.5q-127 -4 -250 -24.5t-252 -24.5q-20 2 -21.5 16.5t9.5 26.5v2q-2 229 -16.5 455.5t-16.5 455.5zM127 1212q-10 20 2 39t35 9q35 -31 76 -49.5t82 -41.5q6 -4 17 -9t20.5 -9 t13.5 -8t-2 -4q27 -4 19.5 -29t-30.5 -29q-12 0 -45.5 16.5t-71.5 38t-71 44t-45 32.5z" />
<glyph unicode="&#xc9;" horiz-adv-x="616" d="M-2 1001q2 -229 16.5 -455.5t16.5 -455.5v-2q-10 -12 -9 -26.5t21 -16.5q129 4 252 24.5t250 24.5q12 2 20 11.5t10.5 19.5t-4 18.5t-20.5 8.5q-119 -4 -233.5 -22.5t-233.5 -25.5q-2 106 -7 212t-9 214q78 4 156.5 13.5t156.5 11.5q12 2 20.5 11t10.5 19.5t-4.5 18.5 t-20.5 8q-82 -2 -161 -12t-163 -12q-10 184 -12 368q109 4 215.5 13.5t212.5 11.5q12 2 20.5 11t10.5 19.5t-4 18.5t-21 8q-109 -2 -216 -12t-218 -12q-2 14 -10 19t-17.5 2t-16.5 -12t-9 -22zM144 1110q-7 25 20 29q-6 0 -2 4t13 8t20.5 9t17.5 9q41 23 82 41.5t76 49.5 q23 10 35 -9t2 -39q-12 -10 -45 -32.5t-71 -44t-72 -38t-46 -16.5q-23 4 -30 29z" />
<glyph unicode="&#xca;" horiz-adv-x="616" d="M-2 1001q2 12 9 21.5t16.5 12.5t17.5 -2t10 -19q111 2 218.5 12t215.5 12q14 0 20.5 -8t4.5 -18.5t-10 -19.5t-21 -11q-106 -2 -212.5 -11t-215.5 -14q2 -184 12 -368q84 2 163 12t161 12q14 0 20.5 -8t4.5 -18.5t-10.5 -19.5t-20.5 -11q-78 -2 -157 -11t-156 -14 q4 -109 9 -214t7 -212q119 6 233.5 24.5t233.5 23.5q14 0 20.5 -8.5t4 -18.5t-10.5 -19.5t-20 -11.5q-127 -4 -250 -24.5t-252 -24.5q-20 2 -21.5 16.5t9.5 26.5v2q-2 229 -16.5 455.5t-16.5 455.5zM96 1124q-2 10 39 61.5t98 125.5q25 12 58 -17q53 -59 81.5 -111.5 t35.5 -62.5q10 -14 8 -24.5t-10.5 -14.5t-19.5 -2t-19 15q-6 8 -23.5 31.5t-36 50t-35 49t-18.5 28.5q-4 -6 -39 -45t-72 -110q-27 -4 -38 0t-9 26z" />
<glyph unicode="&#xcb;" horiz-adv-x="616" d="M-2 1001q2 12 9 21.5t16.5 12.5t17.5 -2t10 -19q111 2 218.5 12t215.5 12q14 0 20.5 -8t4.5 -18.5t-10 -19.5t-21 -11q-106 -2 -212.5 -11t-215.5 -14q2 -184 12 -368q84 2 163 12t161 12q14 0 20.5 -8t4.5 -18.5t-10.5 -19.5t-20.5 -11q-78 -2 -157 -11t-156 -14 q4 -109 9 -214t7 -212q119 6 233.5 24.5t233.5 23.5q14 0 20.5 -8.5t4 -18.5t-10.5 -19.5t-20 -11.5q-127 -4 -250 -24.5t-252 -24.5q-20 2 -21.5 16.5t9.5 26.5v2q-2 229 -16.5 455.5t-16.5 455.5zM111 1156q-2 9 0 21.5t10 22.5l4 4q2 0 2 1t2 1q23 23 44.5 13.5 t8.5 -43.5q-4 -14 -10 -21.5t-16 -13.5q-8 0 -13 -4q-14 -2 -22 4t-10 15zM326 1156q-2 9 0 21.5t10 22.5l4 4q2 0 2 1t2 1q23 23 44.5 13.5t8.5 -43.5q-4 -14 -10 -21.5t-16 -13.5q-8 0 -13 -4q-14 -2 -22 4t-10 15z" />
<glyph unicode="&#xcc;" horiz-adv-x="350" d="M13 39q3 10 12.5 18.5t21.5 8.5q29 0 57.5 1t57.5 3q0 96 -1 212.5t-2 236.5t-2 234.5t-3 209.5q-20 -2 -40 -3.5t-40 -1.5q-14 2 -18.5 10.5t-1.5 17.5t10.5 17.5t15.5 12.5q57 2 113.5 8t111.5 8q14 0 20.5 -8t4.5 -18.5t-10.5 -19.5t-20.5 -11l-92 -6q2 -96 3 -213 t2 -237t2 -235.5t1 -209.5q14 2 28.5 2h30.5q14 0 20.5 -8.5t4.5 -18.5t-10 -19.5t-21 -11.5q-59 0 -117.5 -5t-117.5 -5q-14 2 -18.5 11.5t-1.5 19.5zM53 1212q-10 20 2.5 39t34.5 9q35 -31 76 -49.5t82 -41.5q6 -4 17 -9t20.5 -9t13.5 -8t-2 -4q27 -4 19.5 -29t-29.5 -29 q-12 0 -46 16.5t-72 38t-71 44t-45 32.5z" />
<glyph unicode="&#xcd;" horiz-adv-x="350" d="M13 39q-3 -10 1.5 -19.5t18.5 -11.5q59 0 117.5 5t117.5 5q12 2 20.5 11.5t10.5 19.5t-4 18.5t-21 8.5h-30.5t-28.5 -2q0 94 -1 209.5t-2 235.5t-2 236.5t-3 213.5l92 6q12 2 20.5 11t10.5 19.5t-4.5 18.5t-20.5 8q-55 -2 -111.5 -8t-113.5 -8q-8 -4 -15.5 -12.5 t-10.5 -17.5t1 -17t19 -11q20 0 39.5 1.5t40.5 3.5q2 -94 3 -209t2 -235t2 -236.5t1 -212.5q-29 -2 -57.5 -3t-57.5 -1q-12 0 -21.5 -8.5t-12.5 -18.5zM56 1110q-7 25 20 29q-6 0 -2 4t13 8t20.5 9t17.5 9q41 23 82 41.5t76 49.5q23 10 34.5 -9t1.5 -39q-12 -10 -44.5 -32.5 t-70.5 -44t-72 -38t-46 -16.5q-23 4 -30 29z" />
<glyph unicode="&#xce;" horiz-adv-x="350" d="M13 39q3 10 12.5 18.5t21.5 8.5q29 0 57.5 1t57.5 3q0 96 -1 212.5t-2 236.5t-2 234.5t-3 209.5q-20 -2 -40 -3.5t-40 -1.5q-14 2 -18.5 10.5t-1.5 17.5t10.5 17.5t15.5 12.5q57 2 113.5 8t111.5 8q14 0 20.5 -8t4.5 -18.5t-10.5 -19.5t-20.5 -11l-92 -6q2 -96 3 -213 t2 -237t2 -235.5t1 -209.5q14 2 28.5 2h30.5q14 0 20.5 -8.5t4.5 -18.5t-10 -19.5t-21 -11.5q-59 0 -117.5 -5t-117.5 -5q-14 2 -18.5 11.5t-1.5 19.5zM23 1124q-2 10 39 61.5t98 125.5q25 12 57 -17q53 -59 82 -111.5t35 -62.5q10 -14 8 -24.5t-10 -14.5t-19.5 -2t-19.5 15 q-6 8 -23.5 31.5t-36 50t-35 49t-18.5 28.5q-4 -6 -39 -45t-71 -110q-27 -4 -38.5 0t-8.5 26z" />
<glyph unicode="&#xcf;" horiz-adv-x="350" d="M13 39q3 10 12.5 18.5t21.5 8.5q29 0 57.5 1t57.5 3q0 96 -1 212.5t-2 236.5t-2 234.5t-3 209.5q-20 -2 -40 -3.5t-40 -1.5q-14 2 -18.5 10.5t-1.5 17.5t10.5 17.5t15.5 12.5q57 2 113.5 8t111.5 8q14 0 20.5 -8t4.5 -18.5t-10.5 -19.5t-20.5 -11l-92 -6q2 -96 3 -213 t2 -237t2 -235.5t1 -209.5q14 2 28.5 2h30.5q14 0 20.5 -8.5t4.5 -18.5t-10 -19.5t-21 -11.5q-59 0 -117.5 -5t-117.5 -5q-14 2 -18.5 11.5t-1.5 19.5zM61 1156q-2 9 0 21.5t11 22.5l4 4q2 0 2 1t2 1q23 23 44 13.5t9 -43.5q-4 -14 -10 -21.5t-17 -13.5q-8 0 -12 -4 q-14 -2 -22.5 4t-10.5 15zM233.5 1156q-2.5 9 0 21.5t10.5 22.5l4 4q2 0 2 1t2 1q23 23 44 13.5t9 -43.5q-4 -14 -10 -21.5t-16 -13.5q-8 0 -13 -4q-14 -2 -22 4t-10.5 15z" />
<glyph unicode="&#xd0;" horiz-adv-x="700" d="M5 540.5q3 10.5 12.5 18.5t21.5 8h43q-4 104 -9 210t-14 210q-2 14 8.5 25.5t26.5 11.5q117 39 217.5 5t176 -111.5t122.5 -186t58.5 -219.5t-15 -210t-100.5 -157q-72 -57 -121 -83.5t-98 -38t-110.5 -16.5t-157.5 -19q-16 -2 -22.5 5t-5.5 17t8 20.5t17 14.5 q70 10 132.5 14t119 15.5t108.5 37t103 76.5q63 63 83 156.5t3.5 193t-62.5 193.5t-113.5 158.5t-150.5 87t-171 -18.5q6 -98 11 -195t9 -196h158q4 0 8 1t8 1q31 0 31 -20.5t-29 -36.5q-35 -4 -81 -5t-93 -1q4 -100 9.5 -199.5t11.5 -197.5q-6 -20 -25.5 -29.5t-28.5 18.5 q-6 104 -11 206t-9 206h-59q-14 2 -18.5 11t-1.5 19.5z" />
<glyph unicode="&#xd1;" horiz-adv-x="727" d="M4 4q-2 4 0 49t6 117t9.5 161t11.5 182t11 183t10 162t8.5 117t5.5 51q4 33 31.5 32t41.5 -18q45 -80 95.5 -175t101.5 -190t98 -184.5t84 -158t60.5 -110.5t27.5 -44q-2 4 -3 60.5t-2 138.5t-2 177t-2 178t-2 139.5t-1 60.5q2 16 4 27.5t14 21.5q10 8 19.5 9t19.5 -9 q4 -74 7.5 -167t4.5 -190.5t0 -191.5t-2.5 -168t-2.5 -119l-1 -45q0 -18 -13 -31.5t-32 -0.5q-84 115 -144 223t-114.5 215.5t-110 219.5t-126.5 232q-2 -80 -8.5 -179t-12.5 -202.5t-13 -203t-12 -178t-9.5 -128t-4.5 -53.5q-6 -20 -25.5 -29.5t-27.5 19.5zM178 1095.5 q-4 10.5 2 24.5q20 55 45 77t50.5 22t52 -16.5t48 -35t39 -34t27.5 -15.5q18 0 29.5 13.5t22 30t20.5 32.5t23 25q29 10 39 -10.5t-5 -37.5q-27 -41 -57.5 -76.5t-58.5 -35.5q-33 0 -65 28.5t-60.5 50t-55.5 19.5t-47 -63q-8 -12 -18 -15.5t-18.5 1.5t-12.5 15.5z" />
<glyph unicode="&#xd2;" d="M7 375q-7 92 9.5 187t54.5 185.5t91 158t120.5 106t145.5 32.5q104 -16 175 -69t111 -129t51 -167t-2 -183.5t-50 -178.5t-93.5 -151.5t-132 -103t-165.5 -31.5q-102 6 -169 54t-103 123t-43 167zM71.5 559q-18.5 -113 2 -214t83 -175t177.5 -90q98 4 176 67.5t126 157.5 t63.5 206t-9 211t-92.5 171t-186 90q-86 2 -157 -59.5t-118 -156.5t-65.5 -208zM301 1212q-10 20 2 39t35 9q35 -31 76 -49.5t82 -41.5q6 -4 17 -9t20.5 -9t13.5 -8t-2 -4q27 -4 19.5 -29t-29.5 -29q-12 0 -46 16.5t-72 38t-71 44t-45 32.5z" />
<glyph unicode="&#xd3;" d="M7 375q7 -92 43 -167t102.5 -123t169.5 -54q90 -6 165.5 31.5t132 103t93.5 151.5t50 178.5t2 183.5t-51 167t-111 129t-175 69q-78 6 -145.5 -32.5t-120.5 -106t-91 -158t-54.5 -185.5t-9.5 -187zM71.5 559q18.5 113 65.5 208t118 156.5t157 59.5q119 -18 186.5 -90 t92 -171t9 -211t-63.5 -206t-126 -157.5t-176 -67.5q-115 16 -177.5 90t-83 175t-2 214zM302 1110q-7 25 20 29q-6 0 -2 4t13 8t20.5 9t17.5 9q41 23 82 41.5t75 49.5q23 10 35 -9t2 -39q-12 -10 -45 -32.5t-70.5 -44t-71.5 -38t-46 -16.5q-23 4 -30 29z" />
<glyph unicode="&#xd4;" d="M7 375q-7 92 9.5 187t54.5 185.5t91 158t120.5 106t145.5 32.5q104 -16 175 -69t111 -129t51 -167t-2 -183.5t-50 -178.5t-93.5 -151.5t-132 -103t-165.5 -31.5q-102 6 -169 54t-103 123t-43 167zM71.5 559q-18.5 -113 2 -214t83 -175t177.5 -90q98 4 176 67.5t126 157.5 t63.5 206t-9 211t-92.5 171t-186 90q-86 2 -157 -59.5t-118 -156.5t-65.5 -208zM268 1124q-2 10 39.5 61.5t98.5 125.5q25 12 57 -17q53 -59 81.5 -111.5t35.5 -62.5q10 -14 8 -24.5t-10.5 -14.5t-19.5 -2t-19 15q-6 8 -23.5 31.5t-36 50t-35 49t-18.5 28.5q-4 -6 -39 -45 t-72 -110q-27 -4 -38 0t-9 26z" />
<glyph unicode="&#xd5;" d="M7 375q-7 92 9.5 187t54.5 185.5t91 158t120.5 106t145.5 32.5q104 -16 175 -69t111 -129t51 -167t-2 -183.5t-50 -178.5t-93.5 -151.5t-132 -103t-165.5 -31.5q-102 6 -169 54t-103 123t-43 167zM71.5 559q-18.5 -113 2 -214t83 -175t177.5 -90q98 4 176 67.5t126 157.5 t63.5 206t-9 211t-92.5 171t-186 90q-86 2 -157 -59.5t-118 -156.5t-65.5 -208zM246 1122.5q-4 10.5 2 24.5q20 55 44.5 76.5t50.5 21.5t52.5 -16.5t48 -34.5t39 -33.5t27.5 -15.5q18 0 29.5 13t21.5 29.5t20.5 33t22.5 24.5q29 10 39 -10.5t-4 -36.5q-27 -41 -57.5 -77 t-59.5 -36q-33 0 -64.5 29t-60 50.5t-55.5 19t-47 -63.5q-8 -12 -18.5 -15t-18.5 2t-12 15.5z" />
<glyph unicode="&#xd6;" d="M7 375q-7 92 9.5 187t54.5 185.5t91 158t120.5 106t145.5 32.5q104 -16 175 -69t111 -129t51 -167t-2 -183.5t-50 -178.5t-93.5 -151.5t-132 -103t-165.5 -31.5q-102 6 -169 54t-103 123t-43 167zM71.5 559q-18.5 -113 2 -214t83 -175t177.5 -90q98 4 176 67.5t126 157.5 t63.5 206t-9 211t-92.5 171t-186 90q-86 2 -157 -59.5t-118 -156.5t-65.5 -208zM264 1156q-2 9 0 21.5t10 22.5l5 4q2 0 2 1t2 1q23 23 44 13.5t9 -43.5q-4 -14 -10.5 -21.5t-16.5 -13.5q-8 0 -12 -4q-14 -2 -22.5 4t-10.5 15zM479 1156q-2 9 0 21.5t10 22.5l5 4q2 0 2 1 t2 1q23 23 44 13.5t9 -43.5q-4 -14 -10 -21.5t-17 -13.5q-8 0 -12 -4q-14 -2 -22.5 4t-10.5 15z" />
<glyph unicode="&#xd7;" horiz-adv-x="352" d="M12 510q-6 25 15.5 38t33.5 -1q2 -4 16.5 -19.5t31 -34t32 -37t19.5 -28.5q23 27 34 39t20 21.5t20.5 21.5t35.5 37q23 16 36 2t-1 -37l-37 -37t-21 -21.5t-20.5 -21.5t-33.5 -37q35 -33 65.5 -68.5t54.5 -56.5q0 -4 1 -13t0 -17.5t-9 -14.5t-29 -2q-29 23 -59.5 59.5 t-64.5 67.5l-86 -94l-5 -6l-2 2l-4 -6q-12 -8 -20 -6t-11.5 10t-2 18.5t7.5 18.5l14 14l4 4q14 14 21.5 22.5t13.5 15.5t13 15.5t22 24.5q-2 10 -16.5 29.5t-33 40t-35 37z" />
<glyph unicode="&#xd8;" d="M5 453.5q3 107.5 37 216t90 194.5t132 136.5t164 43.5q57 -8 107 -30q16 35 29.5 65.5t27.5 59.5q16 23 39.5 19.5t13.5 -32.5l-63 -137q90 -55 135 -150.5t52 -204t-22.5 -219t-88 -198.5t-144.5 -140t-192 -46q-41 2 -77 11t-65 26l-51 -115q-16 -16 -37.5 -14 t-17.5 28q14 29 28.5 61.5t30.5 69.5q-72 57 -101.5 152.5t-26.5 203zM63.5 479q-4.5 -92 19 -176t79.5 -141q41 90 85 192.5t89 206t88 203.5t84 190q-23 10 -46 17.5t-50 11.5q-72 2 -134.5 -42t-108.5 -116.5t-73.5 -163t-32 -182.5zM207 125q55 -37 127 -45 q86 4 156.5 54t119.5 128t74 173t20.5 188.5t-41 174.5t-108.5 130q-41 -92 -85 -194.5t-89 -208t-90 -208t-84 -192.5z" />
<glyph unicode="&#xd9;" horiz-adv-x="759" d="M2 551q-4 123 3.5 244.5t17.5 244.5q2 12 11 21.5t18 11.5t16.5 -4t7.5 -22q-10 -121 -17.5 -241t-3.5 -239q4 -47 6 -94t11 -94q12 -80 34.5 -147.5t62.5 -108.5t101.5 -51.5t153.5 24.5q47 20 98 58.5t82 78.5q43 55 59.5 121t17.5 134.5t-8 137t-22 130.5 q-4 18 -8 45.5t-10 56.5t-14.5 57.5t-20.5 49.5q-18 10 -6 36q4 2 4 5q10 10 22.5 15t22.5 -11q14 -23 24.5 -52.5t17.5 -62.5t12 -63.5t10 -53.5q12 -63 22 -140t9 -154.5t-21.5 -150.5t-71.5 -128q-37 -37 -79 -75t-89 -66.5t-101.5 -45t-111.5 -10.5q-88 4 -137 62.5 t-74.5 141.5t-34 175t-14.5 164zM193 1212q-10 20 2 39t34 9q35 -31 76 -49.5t82 -41.5q6 -4 17.5 -9t20.5 -9t13 -8t-2 -4q27 -4 20 -29t-30 -29q-12 0 -46 16.5t-72 38t-70.5 44t-44.5 32.5z" />
<glyph unicode="&#xda;" horiz-adv-x="759" d="M2 551q6 -72 14.5 -164t34 -175t74.5 -141.5t137 -62.5q57 -6 111.5 10.5t101.5 45t89 66.5t79 75q51 55 71.5 128t21.5 150.5t-9 154.5t-22 140q-4 23 -9.5 53.5t-12.5 63.5t-17.5 62.5t-24.5 52.5q-10 16 -22.5 11t-22.5 -15q0 -2 -4 -5q-12 -27 6 -36q12 -20 20.5 -49 t14.5 -58t10 -56.5t8 -45.5q12 -61 21.5 -130t8.5 -137.5t-17.5 -134t-59.5 -121.5q-31 -41 -82 -78.5t-98 -58.5q-92 -35 -153.5 -24.5t-101.5 51.5t-62.5 108.5t-34.5 147.5q-8 47 -10.5 94t-6.5 94q-4 119 3.5 239t17.5 241q0 16 -7.5 22t-16.5 4t-18 -11.5t-11 -21.5 q-10 -123 -17.5 -244.5t-3.5 -244.5zM212 1110q-7 25 19 29q-6 0 -2 4t13.5 8t20.5 9t18 9q41 23 81.5 41.5t75.5 49.5q23 10 35 -9t2 -39q-12 -10 -45 -32.5t-70.5 -44t-71.5 -38t-46 -16.5q-23 4 -30 29z" />
<glyph unicode="&#xdb;" horiz-adv-x="759" d="M2 551q-4 123 3.5 244.5t17.5 244.5q2 12 11 21.5t18 11.5t16.5 -4t7.5 -22q-10 -121 -17.5 -241t-3.5 -239q4 -47 6 -94t11 -94q12 -80 34.5 -147.5t62.5 -108.5t101.5 -51.5t153.5 24.5q47 20 98 58.5t82 78.5q43 55 59.5 121t17.5 134.5t-8 137t-22 130.5 q-4 18 -8 45.5t-10 56.5t-14.5 57.5t-20.5 49.5q-18 10 -6 36q4 2 4 5q10 10 22.5 15t22.5 -11q14 -23 24.5 -52.5t17.5 -62.5t12 -63.5t10 -53.5q12 -63 22 -140t9 -154.5t-21.5 -150.5t-71.5 -128q-37 -37 -79 -75t-89 -66.5t-101.5 -45t-111.5 -10.5q-88 4 -137 62.5 t-74.5 141.5t-34 175t-14.5 164zM172 1124q-2 10 39 61.5t98 125.5q25 12 58 -17q53 -59 81.5 -111.5t34.5 -62.5q10 -14 8 -24.5t-10 -14.5t-19 -2t-20 15q-6 8 -23.5 31.5t-35.5 50t-34.5 49t-18.5 28.5q-4 -6 -39 -45t-72 -110q-27 -4 -38 0t-9 26z" />
<glyph unicode="&#xdc;" horiz-adv-x="759" d="M2 551q-4 123 3.5 244.5t17.5 244.5q2 12 11 21.5t18 11.5t16.5 -4t7.5 -22q-10 -121 -17.5 -241t-3.5 -239q4 -47 6 -94t11 -94q12 -80 34.5 -147.5t62.5 -108.5t101.5 -51.5t153.5 24.5q47 20 98 58.5t82 78.5q43 55 59.5 121t17.5 134.5t-8 137t-22 130.5 q-4 18 -8 45.5t-10 56.5t-14.5 57.5t-20.5 49.5q-18 10 -6 36q4 2 4 5q10 10 22.5 15t22.5 -11q14 -23 24.5 -52.5t17.5 -62.5t12 -63.5t10 -53.5q12 -63 22 -140t9 -154.5t-21.5 -150.5t-71.5 -128q-37 -37 -79 -75t-89 -66.5t-101.5 -45t-111.5 -10.5q-88 4 -137 62.5 t-74.5 141.5t-34 175t-14.5 164zM182 1156q-2 9 0 21.5t11 22.5l4 4q2 0 2 1t2 1q23 23 44 13.5t9 -43.5q-4 -14 -10 -21.5t-17 -13.5q-8 0 -12 -4q-14 -2 -22.5 4t-10.5 15zM397 1156q-2 9 0 21.5t11 22.5l4 4q2 0 2 1t2 1q23 23 44 13.5t9 -43.5q-4 -14 -10 -21.5 t-17 -13.5q-8 0 -12 -4q-14 -2 -22.5 4t-10.5 15z" />
<glyph unicode="&#xdd;" horiz-adv-x="878" d="M-6 913q14 -84 20 -183t15.5 -199.5t26 -193.5t53 -167t97 -119t156.5 -49q111 -4 185 47t122 132t72.5 178.5t36.5 187.5q8 -135 -2 -275.5t-50 -260.5t-117 -206t-201 -110q-66 -14 -109 -3t-71.5 35.5t-45 55.5t-27 57.5t-17.5 44t-17 11.5q-37 -6 -41 -32t9 -56.5 t34.5 -59.5t34.5 -39q57 -47 124.5 -65.5t134 -9t129 43t109.5 89.5q78 92 117 217t51.5 258t5 262t-21.5 231.5t-27 164.5l-14 63q-10 16 -25.5 8t-21.5 -25q0 -4 -2 -6q-6 -20 4 -27q-10 -20 2 -32q6 -92 7 -182.5t-10 -178.5t-38 -172t-76 -162q-55 -88 -127.5 -114.5 t-143.5 -8t-128 76t-80 139.5q-14 51 -33.5 207.5t-34.5 435.5q0 16 -10 21t-21.5 3t-21.5 -11.5t-12 -21.5zM296 1083.5q-7 24.5 19 28.5q-6 0 -2 4t13.5 8t20.5 9.5t18 9.5q41 23 81.5 41t75.5 49q23 10 35 -8.5t2 -38.5q-12 -10 -45 -33t-70.5 -44.5t-71.5 -37.5t-46 -16 q-23 4 -30 28.5z" />
<glyph unicode="&#xde;" horiz-adv-x="421" d="M12 1090q4 27 26.5 35t27.5 -25q2 -80 3 -160t1 -170q39 0 78.5 1t78.5 -4t75 -17.5t67 -38.5q12 -10 20 -25.5t10 -32.5q2 -55 -30.5 -102t-82.5 -80t-108.5 -48t-105.5 -5l6 -387q-6 -20 -25.5 -29.5t-27.5 18.5q-2 121 -3.5 258.5t-3.5 277.5t-3 276.5t-3 257.5z M70 587q0 -38 1 -68t3 -30q27 -6 66.5 -3t79.5 17.5t73 40t45 66.5q6 43 -22.5 62.5t-73.5 26t-93 5t-79 -1.5v-42.5v-72.5z" />
<glyph unicode="&#xdf;" horiz-adv-x="751" d="M8 598.5q-2 58.5 1 116t13.5 114t34.5 107.5q29 61 92.5 95t133 35t130 -30.5t85.5 -101.5q23 -68 13.5 -127t-38.5 -111.5t-72 -100.5t-86 -93q141 16 223.5 -7.5t119 -70.5t35.5 -108.5t-27.5 -122t-70.5 -111.5t-95 -75.5t-100.5 -16.5t-84.5 67q-4 8 -1 19.5 t10.5 19.5t16.5 9t19 -9q6 -41 31 -51t55.5 0t65.5 37t62.5 63.5t45 78.5t15.5 83q-2 25 -15.5 47.5t-33 40t-44 28.5t-48.5 15q-57 10 -117 7t-119 -1q-33 0 -10 58q29 37 64.5 70.5t67.5 70.5t55.5 80t29.5 96q6 74 -38 120t-105.5 60.5t-125 -5t-96.5 -81.5 q-35 -63 -37 -139t-4 -147q0 -364 25 -733q-4 -20 -22.5 -32t-28.5 17q-10 154 -15.5 304.5t-7.5 301.5q0 55 -2 113.5z" />
<glyph unicode="&#xe0;" horiz-adv-x="540" d="M20 268q-10 20 7 43q16 18 38.5 33.5t40.5 30.5q98 72 176 58.5t129.5 -77t72 -159t1.5 -187.5q-4 -16 -17 -26.5t-30 2.5q-16 25 -28.5 51t-26.5 51t-33.5 46.5t-50.5 33.5q-12 6 -36.5 11t-45.5 -1q-8 -4 -27.5 -14t-40 -24.5t-36 -29t-11.5 -24.5q25 -14 49.5 -15 t48 4t48 12t49.5 11q14 0 20.5 -8t4 -18.5t-10.5 -19.5t-20 -11q-6 0 -33 -8t-68 -17q-76 -14 -107.5 3.5t-30.5 50t29 71.5t68.5 67t90 35t92.5 -22q45 -31 66.5 -62.5t41.5 -66.5q0 70 -21.5 135.5t-61.5 106.5t-97 45t-127 -47q-8 -4 -28.5 -18.5t-34.5 -26.5 q-4 -16 -16.5 -25.5t-28.5 2.5q-4 4 -5 4zM131 668q-10 20 2 38.5t35 8.5q35 -31 76 -49.5t82 -40.5q6 -4 17 -9.5t20.5 -9.5t13.5 -8t-2 -4q27 -4 19.5 -28.5t-29.5 -28.5q-12 0 -46 16t-72 37.5t-71 44.5t-45 33z" />
<glyph unicode="&#xe1;" horiz-adv-x="540" d="M20 268l5 -4q16 -12 28.5 -3t16.5 26q14 12 34.5 26.5t28.5 18.5q70 51 127 47t97 -45t61.5 -106.5t21.5 -135.5q-20 35 -41.5 66.5t-66.5 62.5q-43 29 -92.5 22t-90 -35t-68.5 -67t-29 -71.5t31 -50t107 -3.5q41 8 68 16.5t33 8.5q12 2 20 11t10.5 19.5t-4 18.5t-20.5 8 q-25 -4 -49.5 -11t-48 -12t-48 -4t-49.5 15q-4 10 11.5 24.5t36 29t40 24.5t27.5 14q20 6 45 1t37 -11q31 -12 50.5 -33.5t33.5 -46.5t26.5 -51.5t28.5 -50.5q16 -12 29.5 -2t17.5 26q18 92 -2 187.5t-71.5 159t-129 76.5t-176.5 -58q-18 -14 -40.5 -29.5t-38.5 -34.5 q-16 -23 -7 -43zM132 565.5q-7 24.5 20 28.5q-6 0 -2 4t13 8t20.5 9.5t17.5 9.5q41 23 82 41t75 49q23 10 35 -8.5t2 -38.5q-12 -10 -45 -33t-70.5 -44.5t-71.5 -37.5t-46 -16q-23 4 -30 28.5z" />
<glyph unicode="&#xe2;" horiz-adv-x="540" d="M20 268q-10 20 7 43q16 18 38.5 33.5t40.5 30.5q98 72 176 58.5t129.5 -77t72 -159t1.5 -187.5q-4 -16 -17 -26.5t-30 2.5q-16 25 -28.5 51t-26.5 51t-33.5 46.5t-50.5 33.5q-12 6 -36.5 11t-45.5 -1q-8 -4 -27.5 -14t-40 -24.5t-36 -29t-11.5 -24.5q25 -14 49.5 -15 t48 4t48 12t49.5 11q14 0 20.5 -8t4 -18.5t-10.5 -19.5t-20 -11q-6 0 -33 -8t-68 -17q-76 -14 -107.5 3.5t-30.5 50t29 71.5t68.5 67t90 35t92.5 -22q45 -31 66.5 -62.5t41.5 -66.5q0 70 -21.5 135.5t-61.5 106.5t-97 45t-127 -47q-8 -4 -28.5 -18.5t-34.5 -26.5 q-4 -16 -16.5 -25.5t-28.5 2.5q-4 4 -5 4zM98 535q-2 10 39.5 61t98.5 125q25 12 57 -16q53 -59 81.5 -111.5t35.5 -63.5q10 -14 8 -24t-10.5 -14.5t-19.5 -2t-19 14.5q-6 8 -23.5 31.5t-36 50t-35 49t-18.5 29.5q-4 -6 -39 -45t-72 -111q-27 -4 -38 0t-9 27z" />
<glyph unicode="&#xe3;" horiz-adv-x="540" d="M20 268q-10 20 7 43q16 18 38.5 33.5t40.5 30.5q98 72 176 58.5t129.5 -77t72 -159t1.5 -187.5q-4 -16 -17 -26.5t-30 2.5q-16 25 -28.5 51t-26.5 51t-33.5 46.5t-50.5 33.5q-12 6 -36.5 11t-45.5 -1q-8 -4 -27.5 -14t-40 -24.5t-36 -29t-11.5 -24.5q25 -14 49.5 -15 t48 4t48 12t49.5 11q14 0 20.5 -8t4 -18.5t-10.5 -19.5t-20 -11q-6 0 -33 -8t-68 -17q-76 -14 -107.5 3.5t-30.5 50t29 71.5t68.5 67t90 35t92.5 -22q45 -31 66.5 -62.5t41.5 -66.5q0 70 -21.5 135.5t-61.5 106.5t-97 45t-127 -47q-8 -4 -28.5 -18.5t-34.5 -26.5 q-4 -16 -16.5 -25.5t-28.5 2.5q-4 4 -5 4zM70 549q-4 10 2 24q20 55 44.5 77t50.5 22t52.5 -16.5t48 -35t39 -34t27.5 -15.5q18 0 29.5 13.5t21.5 30t20.5 33t22.5 24.5q29 10 39 -10.5t-4 -36.5q-27 -41 -57.5 -77t-59.5 -36q-33 0 -64.5 28.5t-60 50t-55.5 19.5t-47 -63 q-8 -12 -18.5 -15.5t-18.5 2t-12 15.5z" />
<glyph unicode="&#xe4;" horiz-adv-x="540" d="M20 268q-10 20 7 43q16 18 38.5 33.5t40.5 30.5q98 72 176 58.5t129.5 -77t72 -159t1.5 -187.5q-4 -16 -17 -26.5t-30 2.5q-16 25 -28.5 51t-26.5 51t-33.5 46.5t-50.5 33.5q-12 6 -36.5 11t-45.5 -1q-8 -4 -27.5 -14t-40 -24.5t-36 -29t-11.5 -24.5q25 -14 49.5 -15 t48 4t48 12t49.5 11q14 0 20.5 -8t4 -18.5t-10.5 -19.5t-20 -11q-6 0 -33 -8t-68 -17q-76 -14 -107.5 3.5t-30.5 50t29 71.5t68.5 67t90 35t92.5 -22q45 -31 66.5 -62.5t41.5 -66.5q0 70 -21.5 135.5t-61.5 106.5t-97 45t-127 -47q-8 -4 -28.5 -18.5t-34.5 -26.5 q-4 -16 -16.5 -25.5t-28.5 2.5q-4 4 -5 4zM117 564q-2 9 0 21.5t10 22.5l4 4q2 0 2 1t2 1q23 23 44.5 13.5t8.5 -43.5q-4 -14 -10 -21.5t-16 -13.5q-8 0 -12 -4q-14 -2 -22.5 4t-10.5 15zM332 564q-2 9 0 21.5t10 22.5l4 4q2 0 2 1t2 1q23 23 44.5 13.5t8.5 -43.5 q-4 -14 -10 -21.5t-16 -13.5q-8 0 -12 -4q-14 -2 -22.5 4t-10.5 15z" />
<glyph unicode="&#xe5;" horiz-adv-x="540" d="M20 268q-10 20 7 43q16 18 38.5 33.5t40.5 30.5q98 72 176 58.5t129.5 -77t72 -159t1.5 -187.5q-4 -16 -17 -26.5t-30 2.5q-16 25 -28.5 51t-26.5 51t-33.5 46.5t-50.5 33.5q-12 6 -36.5 11t-45.5 -1q-8 -4 -27.5 -14t-40 -24.5t-36 -29t-11.5 -24.5q25 -14 49.5 -15 t48 4t48 12t49.5 11q14 0 20.5 -8t4 -18.5t-10.5 -19.5t-20 -11q-6 0 -33 -8t-68 -17q-76 -14 -107.5 3.5t-30.5 50t29 71.5t68.5 67t90 35t92.5 -22q45 -31 66.5 -62.5t41.5 -66.5q0 70 -21.5 135.5t-61.5 106.5t-97 45t-127 -47q-8 -4 -28.5 -18.5t-34.5 -26.5 q-4 -16 -16.5 -25.5t-28.5 2.5q-4 4 -5 4zM150 594q0 31 10 62.5t27.5 55t37.5 23.5q23 6 66 -2t59 -28q31 -41 27 -81t-31 -68t-66.5 -38t-78.5 8q-10 4 -20.5 8.5t-18.5 14.5q-12 14 -12 45zM203 626.5q0 -12.5 2 -23.5t8 -17q37 -31 61.5 -28t37 23.5t12 47.5t-14.5 41 q-27 27 -56.5 20.5t-43.5 -28.5q-2 -4 -4 -13.5t-2 -22z" />
<glyph unicode="&#xe6;" horiz-adv-x="849" d="M9 301.5q7 15.5 22.5 29t34 24t30.5 20.5q55 41 104.5 53t92.5 1t76.5 -40t58.5 -72q12 51 39 89t72 47q33 6 60.5 -16l47.5 -38q35 -31 44 -61.5t-1 -57t-33.5 -48t-54.5 -35t-63.5 -17.5t-59.5 4q16 -111 98 -130t207 81q14 10 23.5 8t13.5 -9t2 -18.5t-12 -21.5 q-43 -35 -88 -60.5t-88 -35.5t-83 -2t-73 43q0 -8 -1 -14.5t-3 -14.5q-4 -16 -17.5 -26.5t-29.5 2.5q-16 25 -28.5 51t-27 51t-34 46.5t-49.5 33.5q-12 6 -37 11t-45 -1q-8 -4 -27.5 -14t-40 -24.5t-36 -29t-11.5 -24.5q25 -14 49.5 -15t48 4t48 12t49.5 11q14 0 20 -8 t4 -18.5t-10 -19.5t-20 -11q-6 0 -33 -8t-68 -17q-76 -14 -107.5 3.5t-30.5 50t28.5 71.5t68.5 67t90.5 35t92.5 -22q45 -31 66.5 -62.5t41.5 -66.5q0 55 -18.5 123t-55.5 114t-95 54t-138 -51q-8 -4 -22.5 -17.5t-31 -27t-31.5 -21.5t-24 -2l-4 4q-8 18 -1 33.5zM475 256 q10 -14 33.5 -16t49.5 4t49.5 17t31.5 24q-4 27 -24.5 55.5t-45 42.5t-48.5 6t-34 -55q-8 -39 -12 -78z" />
<glyph unicode="&#xe7;" horiz-adv-x="446" d="M8 144.5q-6 48.5 4.5 99.5t28.5 88q6 12 21.5 26.5t34 24.5t38 12t33.5 -10q14 -10 25.5 -21.5l23.5 -23.5q8 -10 8 -21.5t-6 -19.5t-16 -11t-23 5l-43 39q-31 0 -49 -21.5t-27.5 -50.5t-8.5 -60.5t11 -56.5q27 -59 97 -63q6 2 20 -2q47 2 97.5 23.5t84.5 50.5 q4 16 18.5 23t29.5 -9l2 -4q10 -20 -11 -41q-27 -25 -59.5 -41.5t-65.5 -30.5q-43 -16 -90 -26q0 -2 -4 -7l-14 -59q33 -6 65 -27q14 -8 33 -25.5t29 -39t7 -41t-30 -31.5q-57 -20 -115.5 -7t-113.5 17q-12 2 -20.5 11.5t-10.5 19.5t3 18.5t22 8.5q23 -2 51.5 -8.5t57 -11.5 t55 -4t49.5 16q-14 29 -50 39t-63 14q-16 2 -25.5 13t-5.5 26q4 20 10.5 39.5t10.5 35.5q-57 6 -85 41t-34 83.5zM127 20v3v-3z" />
<glyph unicode="&#xe8;" horiz-adv-x="473" d="M9.5 199q-3.5 53 9 106t39 95t73.5 51q33 6 61 -16t48 -38q35 -33 44 -62.5t-1.5 -56t-34 -48t-54 -35t-63.5 -17.5t-59 4q16 -111 98 -130t207 81q14 10 23.5 8t13.5 -9t2 -18.5t-13 -21.5q-53 -43 -107 -70.5t-104.5 -30.5t-93.5 24.5t-73 99.5q-12 31 -15.5 84z M25 668q-10 20 2 38.5t34 8.5q35 -31 76 -49.5t82 -40.5q6 -4 17.5 -9.5t20.5 -9.5t13 -8t-2 -4q27 -4 20 -28.5t-30 -28.5q-12 0 -46 16t-72 37.5t-70.5 44.5t-44.5 33zM68 254q10 -14 33.5 -16t49 4t49 17t31.5 24q-4 27 -24.5 55.5t-45 42.5t-48 6t-33.5 -55 q-8 -39 -12 -78z" />
<glyph unicode="&#xe9;" horiz-adv-x="473" d="M9 198.5q3 -53.5 16 -83.5q31 -72 73.5 -99.5t93 -24.5t104.5 30.5t107 70.5q10 10 12.5 21.5t-1.5 18.5t-13.5 9t-23.5 -8q-125 -100 -207 -80.5t-98 129.5q27 -8 59.5 -4t63 17.5t54 35t34 48t1.5 56t-44 62.5q-20 16 -48 38t-61 16q-47 -8 -73.5 -50.5t-39 -95.5 t-9.5 -106.5zM25 565.5q-7 24.5 20 28.5q-6 0 -2 4t13.5 8t20.5 9.5t17 9.5q41 23 82 41t76 49q23 10 35 -8.5t2 -38.5q-12 -10 -45 -33t-71 -44.5t-71.5 -37.5t-46.5 -16q-23 4 -30 28.5zM68 254q4 39 12 78q10 47 33.5 55t48 -6t45 -43t24.5 -55q-8 -12 -31.5 -23.5 t-49 -17.5t-49 -4t-33.5 16z" />
<glyph unicode="&#xea;" horiz-adv-x="473" d="M6 535q-2 10 39 61t98 125q25 12 58 -16q53 -59 81.5 -111.5t34.5 -63.5q10 -14 8.5 -24t-10 -14.5t-19.5 -2t-20 14.5q-6 8 -23 31.5t-35.5 50t-35 49t-18.5 29.5q-4 -6 -39 -45t-72 -111q-27 -4 -38 0t-9 27zM9.5 199q-3.5 53 9 106t39 95t73.5 51q33 6 61 -16t48 -38 q35 -33 44 -62.5t-1.5 -56t-34 -48t-54 -35t-63.5 -17.5t-59 4q16 -111 98 -130t207 81q14 10 23.5 8t13.5 -9t2 -18.5t-13 -21.5q-53 -43 -107 -70.5t-104.5 -30.5t-93.5 24.5t-73 99.5q-12 31 -15.5 84zM68 254q10 -14 33.5 -16t49 4t49 17t31.5 24q-4 27 -24.5 55.5 t-45 42.5t-48 6t-33.5 -55q-8 -39 -12 -78z" />
<glyph unicode="&#xeb;" horiz-adv-x="473" d="M9.5 199q-3.5 53 9 106t39 95t73.5 51q33 6 61 -16t48 -38q35 -33 44 -62.5t-1.5 -56t-34 -48t-54 -35t-63.5 -17.5t-59 4q16 -111 98 -130t207 81q14 10 23.5 8t13.5 -9t2 -18.5t-13 -21.5q-53 -43 -107 -70.5t-104.5 -30.5t-93.5 24.5t-73 99.5q-12 31 -15.5 84z M20.5 564q-2.5 9 0 21.5t10.5 22.5l4 4q2 0 2 1t2 1q23 23 44 13.5t9 -43.5q-4 -14 -10 -21.5t-16 -13.5q-8 0 -13 -4q-14 -2 -22 4t-10.5 15zM68 254q10 -14 33.5 -16t49 4t49 17t31.5 24q-4 27 -24.5 55.5t-45 42.5t-48 6t-33.5 -55q-8 -39 -12 -78zM235.5 564 q-2.5 9 0 21.5t10.5 22.5l4 4q2 0 2 1t2 1q23 23 44 13.5t9 -43.5q-4 -14 -10 -21.5t-16 -13.5q-8 0 -13 -4q-14 -2 -22 4t-10.5 15z" />
<glyph unicode="&#xec;" horiz-adv-x="280" d="M8 668q-10 20 2.5 38.5t34.5 8.5q35 -31 76 -49.5t82 -40.5q6 -4 17 -9.5t20.5 -9.5t13.5 -8t-2 -4q27 -4 19.5 -28.5t-29.5 -28.5q-12 0 -46 16t-72 37.5t-71 44.5t-45 33zM76 23q2 84 11 165.5t11 163.5q4 27 26.5 35t27.5 -25q-2 -84 -11.5 -164.5t-11.5 -164.5 q-6 -20 -25.5 -29.5t-27.5 19.5z" />
<glyph unicode="&#xed;" horiz-adv-x="278" d="M3 565.5q-7 24.5 20 28.5q-6 0 -2 4t13 8t20.5 9.5t17.5 9.5q41 23 82 41t75 49q23 10 35 -8.5t2 -38.5q-12 -10 -45 -33t-70.5 -44.5t-71.5 -37.5t-46 -16q-23 4 -30 28.5zM70 23q8 -29 27.5 -20t25.5 30q2 84 11 165t11 164q-4 33 -26.5 25t-26.5 -35q-2 -82 -11 -164 t-11 -165z" />
<glyph unicode="&#xee;" horiz-adv-x="325" d="M4 535q-2 10 39 61t98 125q25 12 58 -16q53 -59 81.5 -111.5t34.5 -63.5q10 -14 8.5 -24t-10 -14.5t-19.5 -2t-20 14.5q-6 8 -23.5 31.5t-35.5 50t-34.5 49t-18.5 29.5q-4 -6 -39 -45t-72 -111q-27 -4 -38 0t-9 27zM117 23q2 84 11 165.5t11 163.5q4 27 26.5 35t27.5 -25 q-2 -84 -11.5 -164.5t-11.5 -164.5q-6 -20 -25.5 -29.5t-27.5 19.5z" />
<glyph unicode="&#xef;" horiz-adv-x="235" d="M6 564q-2 9 0 21.5t10 22.5l4 4q2 0 2.5 1t2.5 1q23 23 44 13.5t9 -43.5q-4 -14 -10.5 -21.5t-16.5 -13.5q-8 0 -12 -4q-14 -2 -22.5 4t-10.5 15zM47 23q2 84 11.5 165.5t11.5 163.5q4 27 26.5 35t26.5 -25q-2 -84 -11.5 -164.5t-11.5 -164.5q-6 -20 -25.5 -29.5 t-27.5 19.5zM154 564q-2 9 0 21.5t10 22.5l4 4q2 0 2 1t2 1q23 23 44.5 13.5t8.5 -43.5q-4 -14 -10 -21.5t-16 -13.5q-8 0 -13 -4q-14 -2 -22 4t-10 15z" />
<glyph unicode="&#xf0;" horiz-adv-x="653" d="M2 293.5q4 71.5 35 131.5t84 102t120.5 55.5t144.5 -10t157 -93.5q-12 27 -35 73t-47.5 98t-48 101.5t-41.5 84.5q-35 -12 -66.5 -29.5t-60.5 -40.5q-12 -8 -21.5 -5t-13.5 12t-4 20.5t6 19.5q10 8 48 27.5t87 42.5q-35 63 -57.5 109t-22.5 52q-6 16 1 25.5t17.5 11.5 t22.5 -3t19 -17l69 -152q68 29 119 52.5t64 17.5l14 -16l-4 -17q0 -4 -18.5 -15t-44 -25.5t-54.5 -27t-51 -18.5q82 -164 135 -291t62.5 -228t-31.5 -180t-148 -149q-49 -33 -111.5 -35t-121 17.5t-106.5 60.5t-70 95q-31 72 -27 143.5zM66.5 328.5q-9.5 -60.5 9.5 -127.5 q14 -49 51 -85t86 -54.5t104.5 -17.5t105.5 24.5t87 71.5t49 126q8 47 -9.5 94.5t-53 85t-88 61t-115.5 25.5q-61 2 -109.5 -24.5t-78 -72.5t-39 -106.5z" />
<glyph unicode="&#xf1;" horiz-adv-x="471" d="M4 109v8q4 66 5 128t3 128q4 27 26.5 35t27.5 -25l-5 -125q49 70 114 94.5t121 2t93 -91t29 -183.5v-2h-2q-6 -18 -24.5 -26.5t-26.5 18.5v24q2 98 -38 152.5t-92.5 60.5t-103.5 -39t-74 -149q0 -4 -2 -4v-13h-6q-10 -12 -24.5 -14t-20.5 21zM27 549q-4 10 2 24 q20 55 44.5 77t50.5 22t52.5 -16.5t48 -35t39 -34t27.5 -15.5q18 0 29.5 13.5t21.5 30t20.5 33t22.5 24.5q29 10 39 -10.5t-4 -36.5q-27 -41 -57.5 -77t-59.5 -36q-33 0 -64.5 28.5t-60 50t-55.5 19.5t-47 -63q-8 -12 -18.5 -15.5t-18.5 2t-12 15.5z" />
<glyph unicode="&#xf2;" horiz-adv-x="387" d="M5.5 175q0.5 46 16 92t42 81t57.5 35q16 4 42.5 2t54.5 -8t52.5 -16.5t36.5 -24.5q45 -59 38 -117.5t-45 -99.5t-97.5 -56.5t-118.5 13.5q-16 8 -31.5 14t-27.5 19q-20 20 -19.5 66zM55 181.5q0 -17.5 11 -25.5q35 -31 71.5 -37t67.5 3t52.5 31.5t27.5 50t-8.5 55 t-53.5 50.5q-47 27 -84 8.5t-59 -49.5q-4 -4 -9 -19.5t-10.5 -32.5t-5.5 -34.5zM72 668q-10 20 2 38.5t35 8.5q35 -31 75.5 -49.5t81.5 -40.5q6 -4 17.5 -9.5t20.5 -9.5t13.5 -8t-2.5 -4q27 -4 20 -28.5t-30 -28.5q-12 0 -46 16t-71.5 37.5t-70.5 44.5t-45 33z" />
<glyph unicode="&#xf3;" horiz-adv-x="387" d="M5 175q-1 -46 20 -66q12 -12 27.5 -18.5t31.5 -14.5q59 -29 118.5 -13.5t97.5 56.5t45 99t-38 118q-12 14 -36.5 24.5t-52.5 16.5t-54.5 8t-42.5 -2q-31 0 -57.5 -35t-42 -81t-16.5 -92zM55.5 181.5q-0.5 17.5 5 34.5t10.5 32.5t9 19.5q23 31 59.5 49.5t83.5 -8.5 q39 -23 53.5 -50.5t8.5 -55t-27.5 -50t-52.5 -31.5t-68 -3t-71 37q-10 8 -10.5 25.5zM72.5 565.5q-6.5 24.5 19.5 28.5q-6 0 -2 4t13.5 8t20.5 9.5t17 9.5q41 23 82 41t76 49q23 10 35 -8.5t2 -38.5q-12 -10 -45 -33t-71 -44.5t-71.5 -37.5t-46.5 -16q-23 4 -29.5 28.5z" />
<glyph unicode="&#xf4;" horiz-adv-x="387" d="M5.5 175q0.5 46 16 92t42 81t57.5 35q16 4 42.5 2t54.5 -8t52.5 -16.5t36.5 -24.5q45 -59 38 -117.5t-45 -99.5t-97.5 -56.5t-118.5 13.5q-16 8 -31.5 14t-27.5 19q-20 20 -19.5 66zM20 535q-2 10 39.5 61t98.5 125q25 12 57 -16q53 -59 82 -111.5t35 -63.5q10 -14 8 -24 t-10 -14.5t-19.5 -2t-19.5 14.5q-6 8 -23.5 31.5t-36 50t-35 49t-18.5 29.5q-4 -6 -39 -45t-71 -111q-27 -4 -38.5 0t-9.5 27zM55 181.5q0 -17.5 11 -25.5q35 -31 71.5 -37t67.5 3t52.5 31.5t27.5 50t-8.5 55t-53.5 50.5q-47 27 -84 8.5t-59 -49.5q-4 -4 -9 -19.5 t-10.5 -32.5t-5.5 -34.5z" />
<glyph unicode="&#xf5;" horiz-adv-x="425" d="M2 549q-4 10 2 24q20 55 45 77t50.5 22t52 -16.5t48 -35t39 -34t27.5 -15.5q18 0 29.5 13.5t22 30t20.5 33t22 24.5q29 10 39.5 -10.5t-4.5 -36.5q-27 -41 -57.5 -77t-58.5 -36q-33 0 -65 28.5t-60.5 50t-55.5 19.5t-47 -63q-8 -12 -18 -15.5t-18.5 2t-12.5 15.5z M5.5 175q0.5 46 16 92t42 81t57.5 35q16 4 42.5 2t54.5 -8t52.5 -16.5t36.5 -24.5q45 -59 38 -117.5t-45 -99.5t-97.5 -56.5t-118.5 13.5q-16 8 -31.5 14t-27.5 19q-20 20 -19.5 66zM55 181.5q0 -17.5 11 -25.5q35 -31 71.5 -37t67.5 3t52.5 31.5t27.5 50t-8.5 55 t-53.5 50.5q-47 27 -84 8.5t-59 -49.5q-4 -4 -9 -19.5t-10.5 -32.5t-5.5 -34.5z" />
<glyph unicode="&#xf6;" horiz-adv-x="387" d="M5.5 175q0.5 46 16 92t42 81t57.5 35q16 4 42.5 2t54.5 -8t52.5 -16.5t36.5 -24.5q45 -59 38 -117.5t-45 -99.5t-97.5 -56.5t-118.5 13.5q-16 8 -31.5 14t-27.5 19q-20 20 -19.5 66zM35 564q-2 9 0 21.5t10 22.5l4 4q2 0 2 1t2 1q23 23 44.5 13.5t8.5 -43.5 q-4 -14 -10 -21.5t-16 -13.5q-8 0 -12 -4q-14 -2 -22.5 4t-10.5 15zM55 181.5q0 -17.5 11 -25.5q35 -31 71.5 -37t67.5 3t52.5 31.5t27.5 50t-8.5 55t-53.5 50.5q-47 27 -84 8.5t-59 -49.5q-4 -4 -9 -19.5t-10.5 -32.5t-5.5 -34.5zM250 564q-2 9 0 21.5t10 22.5l4 4q2 0 2 1 t2 1q23 23 44.5 13.5t9.5 -43.5q-4 -14 -10.5 -21.5t-16.5 -13.5q-8 0 -12 -4q-14 -2 -22.5 4t-10.5 15z" />
<glyph unicode="&#xf7;" horiz-adv-x="411" d="M15 389q3 10 12.5 18.5t21.5 8.5h293q4 0 8 1t8 1q14 0 20.5 -7.5t4.5 -16.5t-8 -18t-15 -16q-29 -4 -72.5 -5t-89.5 0t-89 2t-74 1q-14 2 -18.5 11.5t-1.5 19.5zM170 492q-8 16 0 32q12 25 35 27q4 0 7 -1t5 -1q10 -2 14.5 -10.5t-0.5 -24.5q-8 -23 -23 -32t-38 10z M172 256v4q2 16 11.5 28.5t21.5 16.5t22.5 -3t12.5 -28v-6q-4 -12 -13.5 -22t-19.5 -14.5t-19.5 1t-15.5 23.5z" />
<glyph unicode="&#xf8;" horiz-adv-x="387" d="M5.5 175q0.5 46 16 92t42 81t57.5 35q16 4 48 2t62 -10l25 53q16 23 39.5 19.5t13.5 -31.5l-28 -60q10 -4 16 -10l10 -10q39 -53 38 -105.5t-28.5 -92.5t-75.5 -63.5t-100 -17.5q-6 -10 -11 -21t-11 -26q-16 -16 -38 -14t-18 29l23 49l-2 2q-16 8 -31.5 14t-27.5 19 q-20 20 -19.5 66zM55.5 181.5q0.5 -17.5 10.5 -25.5q10 -10 22 -17.5t23 -11.5q20 45 30.5 64.5t17.5 34t16 32.5t28 59q-41 14 -73 -3t-50 -46q-4 -4 -9 -19.5t-10.5 -32.5t-5 -34.5zM168 115q35 0 63.5 18.5t43 44t10.5 56t-35 57.5z" />
<glyph unicode="&#xf9;" horiz-adv-x="497" d="M12 358q0 10 7.5 19.5t15.5 14.5t16 2t12 -17q4 -33 6.5 -59.5t6.5 -51t13 -48t26 -52.5q27 -43 61.5 -61.5t69.5 -14.5t62.5 33t39.5 78q10 41 12 78.5t5 76.5q2 18 17 31.5t32 -4.5q12 -23 20 -77t13.5 -110.5t8.5 -101.5t3 -47q2 -25 -20.5 -36t-30.5 18 q-8 37 -9.5 75.5t-3.5 79.5q-10 -23 -18 -46t-25 -44q-61 -78 -122.5 -78t-110.5 47.5t-79 128t-28 166.5zM106 668q-10 20 2.5 38.5t34.5 8.5q35 -31 76 -49.5t82 -40.5q6 -4 17.5 -9.5t20.5 -9.5t13 -8t-2 -4q27 -4 19.5 -28.5t-29.5 -28.5q-12 0 -46 16t-72 37.5 t-71 44.5t-45 33z" />
<glyph unicode="&#xfa;" horiz-adv-x="497" d="M12 358q-2 -86 28 -166.5t79 -128t110.5 -47.5t122.5 78q16 20 24.5 44t18.5 46q2 -41 3 -79.5t10 -75.5q8 -29 30.5 -17.5t20.5 35.5q0 2 -3 47t-8.5 101.5t-13.5 110.5t-20 77q-16 18 -31.5 5t-17.5 -32q-2 -39 -4.5 -76.5t-12.5 -78.5q-12 -49 -39.5 -78t-62.5 -33 t-70 14.5t-61 61.5q-16 29 -25.5 52.5t-13.5 48t-6 51t-7 59.5q-4 14 -12 17t-16 -2t-15.5 -14.5t-7.5 -19.5zM107 565.5q-7 24.5 20 28.5q-6 0 -2 4t13 8t20.5 9.5t17.5 9.5q41 23 82 41t76 49q23 10 35 -8.5t2 -38.5q-12 -10 -45 -33t-71 -44.5t-71.5 -37.5t-46.5 -16 q-23 4 -30 28.5z" />
<glyph unicode="&#xfb;" horiz-adv-x="497" d="M12 358q0 10 7.5 19.5t15.5 14.5t16 2t12 -17q4 -33 6.5 -59.5t6.5 -51t13 -48t26 -52.5q27 -43 61.5 -61.5t69.5 -14.5t62.5 33t39.5 78q10 41 12 78.5t5 76.5q2 18 17 31.5t32 -4.5q12 -23 20 -77t13.5 -110.5t8.5 -101.5t3 -47q2 -25 -20.5 -36t-30.5 18 q-8 37 -9.5 75.5t-3.5 79.5q-10 -23 -18 -46t-25 -44q-61 -78 -122.5 -78t-110.5 47.5t-79 128t-28 166.5zM55 535q-2 10 39.5 61t98.5 125q25 12 57 -16q53 -59 81.5 -111.5t35.5 -63.5q10 -14 8 -24t-10.5 -14.5t-19.5 -2t-19 14.5q-6 8 -23.5 31.5t-36 50t-35 49 t-18.5 29.5q-4 -6 -39 -45t-72 -111q-27 -4 -38 0t-9 27z" />
<glyph unicode="&#xfc;" horiz-adv-x="497" d="M12 358q0 10 7.5 19.5t15.5 14.5t16 2t12 -17q4 -33 6.5 -59.5t6.5 -51t13 -48t26 -52.5q27 -43 61.5 -61.5t69.5 -14.5t62.5 33t39.5 78q10 41 12 78.5t5 76.5q2 18 17 31.5t32 -4.5q12 -23 20 -77t13.5 -110.5t8.5 -101.5t3 -47q2 -25 -20.5 -36t-30.5 18 q-8 37 -9.5 75.5t-3.5 79.5q-10 -23 -18 -46t-25 -44q-61 -78 -122.5 -78t-110.5 47.5t-79 128t-28 166.5zM74 564q-2 9 0 21.5t10 22.5l4 4q2 0 2 1t2 1q23 23 44.5 13.5t8.5 -43.5q-4 -14 -10 -21.5t-16 -13.5q-8 0 -13 -4q-14 -2 -22 4t-10 15zM289 564q-2 9 0 21.5 t10 22.5l4 4q2 0 2 1t2 1q23 23 44.5 13.5t8.5 -43.5q-4 -14 -10 -21.5t-16 -13.5q-8 0 -12 -4q-14 -2 -22.5 4t-10.5 15z" />
<glyph unicode="&#xfd;" horiz-adv-x="489" d="M4 295q-2 -57 19.5 -107.5t64.5 -85t105 -41.5q70 -6 116.5 38t73.5 108q12 -53 24.5 -112.5t21.5 -120t10 -120t-9 -114.5q-10 -49 -37.5 -73.5t-65.5 -32t-81 0t-82 19.5q-6 14 -15.5 16t-17.5 -3t-14 -16t-2 -24q14 -37 64 -51t106.5 -9t106.5 27.5t65 57.5 q37 90 34.5 186t-17.5 189.5t-34.5 181.5t-19.5 160v2q0 2 -1 2t-1 2q0 6 -4 10q-6 12 -21 8l-12 -6l-6 -6q0 -2 -4 -6q0 -2 -1 -3t-1 -3q-2 -4 -2 -11v-14q-2 -27 -10.5 -64.5t-27 -73.5t-49 -60.5t-77.5 -26.5q-49 0 -82 27.5t-49.5 68.5t-14.5 87t25 81q4 14 1 22.5 t-11.5 11.5t-17.5 -1.5t-17 -14.5q-31 -49 -33 -106zM132 565.5q-7 24.5 20 28.5q-6 0 -2 4t13 8t20.5 9.5t17.5 9.5q41 23 82 41t75 49q23 10 35 -8.5t2 -38.5q-12 -10 -45 -33t-70.5 -44.5t-71.5 -37.5t-46 -16q-23 4 -30 28.5z" />
<glyph unicode="&#xfe;" horiz-adv-x="483" d="M12 1090q4 27 26.5 35t27.5 -25v-54.5t1 -67.5t1 -74v-70l16 16t32.5 24.5t48.5 20.5t62 4q76 -10 123 -80.5t70.5 -163t27 -187.5t-5.5 -155q-10 -61 -42.5 -128.5t-82 -110.5t-112 -43t-131.5 75l6 -507q-6 -20 -25.5 -29.5t-27.5 18.5q-2 82 -3 202t-2.5 260 t-2.5 289.5t-2 290t-2 260.5t-3 200zM70 776l18 -612q31 -49 69 -64.5t75.5 -5.5t71.5 43t54 80q14 37 25.5 96.5t12.5 128t-8 139t-33.5 129t-65.5 95.5t-103 41q-18 0 -36.5 -8.5t-35 -20.5t-28.5 -24.5t-16 -16.5z" />
<glyph unicode="&#xff;" horiz-adv-x="489" d="M4 295q2 57 33 106q8 10 17 14.5t17.5 1.5t11.5 -11.5t-1 -22.5q-23 -35 -25 -81t14.5 -87t49.5 -68.5t82 -27.5q47 2 77.5 26.5t49 60.5t27 73.5t10.5 64.5v14q0 6 2 11q0 2 1 3t1 3q4 4 4 6l6 6l12 6q14 4 21 -8q4 -4 4 -10q0 -2 1 -2t1 -2v-2q0 -72 19.5 -160 t34.5 -181.5t17.5 -189.5t-34.5 -186q-14 -35 -64.5 -57.5t-107 -27.5t-106.5 9t-64 51q-4 12 2 23.5t14 16.5t17.5 3t15.5 -16q39 -12 82 -19.5t81 0t65.5 32t37.5 73.5q10 55 9 114.5t-10 120t-21.5 120t-24.5 112.5q-27 -63 -74 -107.5t-116 -38.5q-61 6 -104.5 41 t-65 85.5t-19.5 107.5zM100 564q-2 9 0 21.5t11 22.5l4 4q2 0 2 1t2 1q23 23 44 13.5t9 -43.5q-4 -14 -10 -21.5t-17 -13.5q-8 0 -12 -4q-14 -2 -22.5 4t-10.5 15zM315 564q-2 9 0 21.5t11 22.5l4 4q2 0 2 1t2 1q23 23 44 13.5t9 -43.5q-4 -14 -10 -21.5t-17 -13.5 q-8 0 -12 -4q-14 -2 -22.5 4t-10.5 15z" />
<glyph unicode="&#x152;" horiz-adv-x="1091" d="M7 375q-7 92 9.5 187t54.5 185.5t91 158t120.5 106.5t145.5 32q39 -6 72 -18q10 18 28.5 22.5t22.5 -20.5q111 2 218.5 12.5t215.5 12.5q14 0 20.5 -8.5t4.5 -18.5t-10.5 -19.5t-20.5 -11.5q-106 -2 -213 -11t-215 -13q2 -184 12 -369q84 2 163 12.5t161 12.5 q14 0 20 -8.5t4 -18.5t-10 -19.5t-20 -11.5q-78 -2 -157 -11t-157 -13q4 -109 9.5 -214.5t7.5 -211.5q119 6 233.5 24.5t233.5 22.5q14 0 20 -8t4 -18.5t-10 -19.5t-21 -11q-127 -4 -249.5 -25t-251.5 -25q-25 0 -21 21q-45 -27 -94 -40t-106 -9q-102 6 -169 54t-103 123 t-43 167zM71.5 559q-18.5 -113 2 -214t83 -175t177.5 -90q55 2 105 24.5t91 61.5q-4 199 -16 396.5t-16 395.5q-41 18 -86 25q-86 2 -157 -59.5t-118 -156.5t-65.5 -208z" />
<glyph unicode="&#x153;" horiz-adv-x="600" d="M3 228.5q1 54.5 18.5 104.5t50 84t81 45t111.5 -16v-2q12 10 33 17q33 8 61 -14.5t48 -38.5q35 -33 44 -63t-1.5 -56.5t-34 -48t-54 -34.5t-63.5 -17.5t-59 4.5q16 -111 98 -130.5t207 80.5q14 10 23 8.5t13.5 -9t2.5 -18.5t-13 -22q-76 -59 -151.5 -88.5t-136.5 0.5 q-72 -27 -125.5 -16.5t-87 43.5t-50 83t-15.5 104.5zM57 227.5q0 -55.5 18.5 -99.5t56.5 -66.5t93 -0.5q-10 14 -18 29.5t-17 34.5q-10 23 -13 57.5t2 73.5t16.5 76.5t29.5 68.5q-55 18 -93 -5t-56.5 -68t-18.5 -100.5zM233 264q10 -14 34 -16t49.5 4t49 17.5t31.5 23.5 q-4 27 -24.5 55.5t-45 43t-48 6t-33.5 -55.5q-8 -39 -13 -78z" />
<glyph unicode="&#x178;" horiz-adv-x="878" d="M-6 913q2 12 12 21.5t21.5 11.5t21.5 -3t10 -21q14 -279 34 -435.5t34 -207.5q23 -82 80 -139.5t128 -76t143.5 8t127.5 114.5q49 78 76 162t38 172t10 178t-7 183q-12 12 -2 32q-10 6 -4 27q2 2 2 6q6 16 21.5 24.5t25.5 -7.5l14 -63q13 -62 27 -164.5t21.5 -231.5 t-5 -262t-51.5 -258t-117 -217q-47 -55 -109.5 -89t-129 -43.5t-134 9t-124.5 65.5q-12 10 -34 39t-35 59.5t-9 56t41 32.5q10 6 17 -11.5t17.5 -44t27 -57.5t45 -55.5t71.5 -35.5t109 3q125 25 201.5 110.5t116.5 205.5t50 260.5t2 275.5q-12 -90 -36.5 -187.5 t-72.5 -178.5t-122 -132t-185 -47q-96 4 -156.5 49t-97 119t-53 167t-26 193.5t-15.5 199.5t-20 183zM268 1123.5q-2 9.5 0 21.5t11 22l4 4q2 0 2 1.5t2 1.5q23 23 44 13.5t9 -44.5q-4 -14 -10 -21.5t-17 -13.5q-8 0 -12 -4q-14 -2 -22.5 4t-10.5 15.5zM483 1123.5 q-2 9.5 0 21.5t11 22l4 4q2 0 2 1.5t2 1.5q23 23 44 13.5t9 -44.5q-4 -14 -10 -21.5t-17 -13.5q-8 0 -12 -4q-14 -2 -22.5 4t-10.5 15.5z" />
<glyph unicode="&#x2c6;" horiz-adv-x="339" d="M2 1083q-2 10 39 61.5t98 125.5q25 12 58 -17q53 -59 81.5 -111t34.5 -63q10 -14 8 -24.5t-10 -14.5t-19 -2t-20 15q-6 8 -23.5 31.5t-35.5 50t-34.5 49t-18.5 28.5q-4 -6 -39 -45t-72 -110q-27 -4 -38 0t-9 26z" />
<glyph unicode="&#x2dc;" horiz-adv-x="438" d="M4 1095.5q-4 10.5 2 24.5q20 55 45 77t50.5 22t52 -16.5t48 -35t39 -34t27.5 -15.5q18 0 29.5 13.5t22 30t20.5 32.5t22 25q29 10 39.5 -10.5t-4.5 -37.5q-27 -41 -57.5 -76.5t-58.5 -35.5q-33 0 -65 28.5t-60.5 50t-55.5 19.5t-47 -63q-8 -12 -18 -15.5t-18.5 1.5 t-12.5 15.5z" />
<glyph unicode="&#x2000;" horiz-adv-x="682" />
<glyph unicode="&#x2001;" horiz-adv-x="1365" />
<glyph unicode="&#x2002;" horiz-adv-x="682" />
<glyph unicode="&#x2003;" horiz-adv-x="1365" />
<glyph unicode="&#x2004;" horiz-adv-x="455" />
<glyph unicode="&#x2005;" horiz-adv-x="341" />
<glyph unicode="&#x2006;" horiz-adv-x="227" />
<glyph unicode="&#x2007;" horiz-adv-x="227" />
<glyph unicode="&#x2008;" horiz-adv-x="170" />
<glyph unicode="&#x2009;" horiz-adv-x="273" />
<glyph unicode="&#x200a;" horiz-adv-x="75" />
<glyph unicode="&#x2010;" horiz-adv-x="315" d="M15 301q3 10 12.5 18.5t21.5 8.5q51 0 101.5 -1t99.5 -1q4 0 8 1t8 1q14 0 20.5 -7.5t4.5 -16.5t-8.5 -18.5t-14.5 -15.5q-59 -8 -116.5 -4t-116.5 4q-14 2 -18.5 11.5t-1.5 19.5z" />
<glyph unicode="&#x2011;" horiz-adv-x="315" d="M15 301q3 10 12.5 18.5t21.5 8.5q51 0 101.5 -1t99.5 -1q4 0 8 1t8 1q14 0 20.5 -7.5t4.5 -16.5t-8.5 -18.5t-14.5 -15.5q-59 -8 -116.5 -4t-116.5 4q-14 2 -18.5 11.5t-1.5 19.5z" />
<glyph unicode="&#x2012;" horiz-adv-x="315" d="M15 301q3 10 12.5 18.5t21.5 8.5q51 0 101.5 -1t99.5 -1q4 0 8 1t8 1q14 0 20.5 -7.5t4.5 -16.5t-8.5 -18.5t-14.5 -15.5q-59 -8 -116.5 -4t-116.5 4q-14 2 -18.5 11.5t-1.5 19.5z" />
<glyph unicode="&#x2013;" horiz-adv-x="417" d="M15 301q3 10 12.5 18.5t21.5 8.5q25 0 65 -1t82 -1t80.5 -1t63.5 -1q4 0 8 1t8 1q14 0 20.5 -7.5t4.5 -16.5t-8 -18.5t-15 -15.5q-29 -4 -71.5 -4t-88.5 1t-89 3t-74 2q-14 2 -18.5 11.5t-1.5 19.5z" />
<glyph unicode="&#x2014;" horiz-adv-x="542" d="M15 301q3 10 12.5 18.5t21.5 8.5h83t121.5 -1t121 -1h82.5q4 0 8 1t8 1q31 0 28 -23.5t-26 -34.5q-29 -4 -90 -4t-129 1t-129 2t-92 1q-14 2 -18.5 11.5t-1.5 19.5z" />
<glyph unicode="&#x2018;" horiz-adv-x="149" d="M8 709q0 12 2 36.5t9.5 54t19.5 59.5t29 54q18 18 34.5 8t6.5 -34q-10 -14 -16.5 -37t-8.5 -47.5t-1 -48t1 -37.5q-2 -12 -13.5 -21.5t-24.5 -11.5t-24.5 3t-13.5 22z" />
<glyph unicode="&#x2019;" horiz-adv-x="153" d="M20 717q10 14 16.5 36.5t8.5 47t1 47.5t-1 39q2 12 13.5 21.5t24.5 11.5t24.5 -3.5t13.5 -21.5q0 -12 -2 -36.5t-9.5 -54.5t-19.5 -59.5t-29 -54.5q-18 -18 -34.5 -8t-6.5 35z" />
<glyph unicode="&#x201c;" horiz-adv-x="296" d="M8 709q0 12 2 36.5t9.5 54t19.5 59.5t29 54q18 18 34.5 8t6.5 -34q-10 -14 -16.5 -37t-8.5 -47.5t-1 -48t1 -37.5q-2 -12 -13.5 -21.5t-24.5 -11.5t-24.5 3t-13.5 22zM160 709q0 12 2 36.5t9 54t19.5 59.5t28.5 54q18 18 34.5 8t6.5 -34q-10 -14 -16 -37t-8.5 -47.5 t-1 -48t1.5 -37.5q-2 -12 -13.5 -21.5t-25 -11.5t-24.5 3t-13 22z" />
<glyph unicode="&#x201d;" horiz-adv-x="327" d="M20 717q10 14 16.5 36.5t8.5 47t1 47.5t-1 39q2 12 13.5 21.5t24.5 11.5t24.5 -3.5t13.5 -21.5q0 -12 -2 -36.5t-9.5 -54.5t-19.5 -59.5t-29 -54.5q-18 -18 -34.5 -8t-6.5 35zM172 717q10 14 16.5 36.5t8.5 47t1 47.5t-1 39q2 12 13 21.5t24.5 11.5t24.5 -3.5t13 -21.5 q0 -12 -2 -36.5t-9 -54.5t-19.5 -59.5t-28.5 -54.5q-18 -18 -34.5 -8t-6.5 35z" />
<glyph unicode="&#x2022;" horiz-adv-x="241" d="M34 364.5q17 36.5 77 38.5q20 4 42.5 -4t36 -23.5t15.5 -36t-17 -42.5q-14 -16 -35.5 -28.5t-44 -14.5t-42 7t-29.5 36q-20 31 -3 67.5z" />
<glyph unicode="&#x202f;" horiz-adv-x="273" />
<glyph unicode="&#x205f;" horiz-adv-x="341" />
<glyph unicode="&#x20ac;" horiz-adv-x="532" d="M11 380q3 9 10.5 17.5t15.5 12.5q47 0 104 10q-4 57 6 112q-41 -2 -69.5 -1t-38.5 10q-10 8 -11 19t4 20.5t15 13.5t23 0q8 -6 31.5 -7t58.5 1q6 39 23.5 89t46 94t69.5 78t90 42q14 10 25.5 6t15.5 -13.5t2 -20.5t-16 -13q-55 -14 -93 -48t-60.5 -74t-34 -78t-17.5 -58 q33 2 67.5 6t66.5 8t57.5 7t39.5 3t20.5 -8t4.5 -18t-10 -19.5t-21 -11.5q-29 -2 -98.5 -10t-140.5 -14q-10 -53 -7 -107q35 6 75 9t76 6t60.5 6.5t28.5 7.5q14 0 20.5 -8.5t4.5 -18.5t-10.5 -19.5t-20.5 -11.5q0 -4 -22.5 -6t-57.5 -5t-75 -6t-72 -9q18 -96 78.5 -161 t175.5 -69q14 -6 16 -15t-2 -19.5t-14.5 -16.5t-22.5 -6q-59 0 -108.5 22.5t-86 60.5t-59 88t-29.5 105q-29 -4 -57 -6t-57 -4q-14 2 -18.5 10.5t-1.5 17.5z" />
<glyph unicode="&#xe000;" horiz-adv-x="430" d="M0 0v430h430v-430h-430z" />
<glyph unicode="&#xfb01;" horiz-adv-x="362" d="M-148.5 599q3.5 9 10.5 17.5t15 12.5q35 2 66.5 3t66.5 5q0 86 6.5 163t23.5 134t49 90t83 29q27 4 50.5 -17.5t40 -58.5t26.5 -84t12 -92q-6 -20 -20.5 -20.5t-32.5 10.5q2 33 -3 70.5t-15.5 69.5t-28 50t-41.5 12q-29 -2 -48.5 -28.5t-31.5 -72.5t-17.5 -109.5 t-3.5 -139.5q35 4 74 5t74 3q14 0 20 -8t4 -18.5t-10 -19.5t-20 -11q-35 -2 -67 -3t-66 -5q6 -145 23.5 -286.5t27.5 -254.5q6 -12 -3.5 -27.5t-25.5 -17.5q-16 2 -22 20q-12 123 -31 267.5t-25 292.5q-35 -4 -70.5 -5.5t-70.5 -3.5q-14 2 -18.5 10.5t-1 17.5zM102 57l2 -2 v2h-2zM188 20q2 84 11.5 166t11.5 164q4 27 26.5 35t26.5 -25q-2 -84 -11 -164.5t-11 -164.5q-6 -20 -25.5 -29.5t-28.5 18.5zM256 611.5q0 9.5 5 18.5t15 15q10 23 30 26t24 -26q-4 -18 -14.5 -32.5t-30.5 -20.5q-14 -2 -21.5 4t-7.5 15.5z" />
<glyph unicode="&#xfb02;" horiz-adv-x="389" d="M-148.5 599q3.5 9 10.5 17.5t15 12.5q35 2 66.5 3t66.5 5q0 86 6.5 163t23.5 134t49 90t83 29q27 4 50.5 -6.5t43 -38t32.5 -75.5t17 -120q8 -70 15.5 -163t13.5 -197.5t10 -215t6 -214.5q-6 -20 -25.5 -29.5t-27.5 18.5q-2 115 -6 221.5t-10 211t-14.5 210t-20.5 219.5 q-8 51 -34.5 89t-61.5 30q-29 -2 -48.5 -28.5t-31.5 -72.5t-17.5 -109.5t-3.5 -139.5q35 4 74 5t74 3q14 0 20 -8t4 -18.5t-10 -19.5t-20 -11q-35 -2 -67 -3t-66 -5q6 -145 23.5 -286.5t27.5 -254.5q6 -12 -3.5 -27.5t-25.5 -17.5q-16 2 -22 20q-12 123 -31 267.5t-25 292.5 q-35 -4 -70.5 -5.5t-70.5 -3.5q-14 2 -18.5 10.5t-1 17.5zM102 57l2 -2v2h-2z" />
</font>
</defs>
</svg>
